<?xml version="1.0" encoding="utf-8" standalone="no"?>
<!DOCTYPE svg PUBLIC "-//W3C//DTD SVG 1.1//EN"
  "http://www.w3.org/Graphics/SVG/1.1/DTD/svg11.dtd">
<!-- Created with matplotlib (https://matplotlib.org/) -->
<svg height="307.762pt" version="1.1" viewBox="0 0 415.645 307.762" width="415.645pt" xmlns="http://www.w3.org/2000/svg" xmlns:xlink="http://www.w3.org/1999/xlink">
 <metadata>
  <rdf:RDF xmlns:cc="http://creativecommons.org/ns#" xmlns:dc="http://purl.org/dc/elements/1.1/" xmlns:rdf="http://www.w3.org/1999/02/22-rdf-syntax-ns#">
   <cc:Work>
    <dc:type rdf:resource="http://purl.org/dc/dcmitype/StillImage"/>
    <dc:date>2021-03-23T07:21:19.347997</dc:date>
    <dc:format>image/svg+xml</dc:format>
    <dc:creator>
     <cc:Agent>
      <dc:title>Matplotlib v3.3.3, https://matplotlib.org/</dc:title>
     </cc:Agent>
    </dc:creator>
   </cc:Work>
  </rdf:RDF>
 </metadata>
 <defs>
  <style type="text/css">*{stroke-linecap:butt;stroke-linejoin:round;}</style>
 </defs>
 <g id="figure_1">
  <g id="patch_1">
   <path d="M 0 307.762 
L 415.645 307.762 
L 415.645 0 
L 0 0 
z
" style="fill:#ffffff;"/>
  </g>
  <g id="axes_1">
   <g id="patch_2">
    <path d="M 51.325 273.312 
L 408.445 273.312 
L 408.445 7.2 
L 51.325 7.2 
z
" style="fill:#ffffff;"/>
   </g>
   <g id="matplotlib.axis_1">
    <g id="xtick_1">
     <g id="line2d_1">
      <defs>
       <path d="M 0 0 
L 0 3.5 
" id="m6841290767" style="stroke:#000000;stroke-width:0.8;"/>
      </defs>
      <g>
       <use style="stroke:#000000;stroke-width:0.8;" x="67.557727" xlink:href="#m6841290767" y="273.312"/>
      </g>
     </g>
     <g id="text_1">
      <!-- 0 -->
      <g transform="translate(65.057727 287.187)scale(0.1 -0.1)">
       <defs>
        <path d="M 3.125 29.296875 
Q 3.90625 50 6.4375 56.046875 
Q 8.984375 62.109375 13.671875 66.015625 
Q 18.359375 69.921875 25.1875 69.921875 
Q 32.03125 69.921875 37.109375 64.25 
Q 42.1875 58.59375 43.75 50 
Q 45.3125 41.40625 44.71875 30.265625 
Q 44.140625 19.140625 40.8125 12.109375 
Q 37.5 5.078125 30.859375 2.34375 
Q 24.21875 -0.390625 17.578125 2.921875 
Q 10.9375 6.25 8.203125 11.71875 
Q 5.46875 17.1875 4.296875 23.234375 
Q 3.125 29.296875 3.90625 50 
z
M 12.890625 52.734375 
Q 10.546875 31.25 12.5 22.84375 
Q 14.453125 14.453125 18.9375 10.9375 
Q 23.4375 7.421875 28.125 9.5625 
Q 32.8125 11.71875 34.953125 18.15625 
Q 37.109375 24.609375 37.109375 32.21875 
Q 37.109375 39.84375 36.515625 46.09375 
Q 35.9375 52.34375 33 57.421875 
Q 30.078125 62.5 25.1875 62.6875 
Q 20.3125 62.890625 16.59375 57.8125 
Q 12.890625 52.734375 10.546875 31.25 
z
" id="SimHei-48"/>
       </defs>
       <use xlink:href="#SimHei-48"/>
      </g>
     </g>
    </g>
    <g id="xtick_2">
     <g id="line2d_2">
      <g>
       <use style="stroke:#000000;stroke-width:0.8;" x="108.190336" xlink:href="#m6841290767" y="273.312"/>
      </g>
     </g>
     <g id="text_2">
      <!-- 100 -->
      <g transform="translate(100.690336 287.187)scale(0.1 -0.1)">
       <defs>
        <path d="M 21.875 56.25 
Q 16.796875 51.171875 8.984375 46.484375 
L 8.984375 53.90625 
Q 18.75 60.546875 25 69.53125 
L 29.6875 69.53125 
L 29.6875 2.34375 
L 21.875 2.34375 
z
" id="SimHei-49"/>
       </defs>
       <use xlink:href="#SimHei-49"/>
       <use x="50" xlink:href="#SimHei-48"/>
       <use x="100" xlink:href="#SimHei-48"/>
      </g>
     </g>
    </g>
    <g id="xtick_3">
     <g id="line2d_3">
      <g>
       <use style="stroke:#000000;stroke-width:0.8;" x="148.822945" xlink:href="#m6841290767" y="273.312"/>
      </g>
     </g>
     <g id="text_3">
      <!-- 200 -->
      <g transform="translate(141.322945 287.187)scale(0.1 -0.1)">
       <defs>
        <path d="M 4.6875 3.90625 
Q 5.078125 9.765625 10.15625 14.453125 
Q 15.234375 19.140625 23.046875 29.09375 
Q 30.859375 39.0625 33.203125 44.53125 
Q 35.546875 50 34.953125 53.90625 
Q 34.375 57.8125 31.25 60.34375 
Q 28.125 62.890625 24.015625 62.5 
Q 19.921875 62.109375 16.203125 59.375 
Q 12.5 56.640625 10.546875 51.171875 
L 3.125 52.34375 
Q 6.25 61.328125 11.125 65.421875 
Q 16.015625 69.53125 22.65625 69.921875 
Q 26.5625 70.3125 29.6875 69.71875 
Q 32.8125 69.140625 36.125 66.984375 
Q 39.453125 64.84375 41.59375 60.546875 
Q 43.75 56.25 43.15625 50.1875 
Q 42.578125 44.140625 37.109375 35.734375 
Q 31.640625 27.34375 16.015625 9.375 
L 44.140625 9.375 
L 44.140625 2.34375 
L 4.6875 2.34375 
z
" id="SimHei-50"/>
       </defs>
       <use xlink:href="#SimHei-50"/>
       <use x="50" xlink:href="#SimHei-48"/>
       <use x="100" xlink:href="#SimHei-48"/>
      </g>
     </g>
    </g>
    <g id="xtick_4">
     <g id="line2d_4">
      <g>
       <use style="stroke:#000000;stroke-width:0.8;" x="189.455554" xlink:href="#m6841290767" y="273.312"/>
      </g>
     </g>
     <g id="text_4">
      <!-- 300 -->
      <g transform="translate(181.955554 287.187)scale(0.1 -0.1)">
       <defs>
        <path d="M 3.90625 19.140625 
L 10.9375 20.3125 
Q 12.5 15.234375 16.015625 11.90625 
Q 19.53125 8.59375 24.796875 8.78125 
Q 30.078125 8.984375 33.203125 13.078125 
Q 36.328125 17.1875 35.9375 22.453125 
Q 35.546875 27.734375 31.828125 30.65625 
Q 28.125 33.59375 19.921875 34.765625 
L 19.921875 39.84375 
Q 28.125 40.625 31.828125 44.140625 
Q 35.546875 47.65625 35.15625 53.3125 
Q 34.765625 58.984375 30.078125 61.515625 
Q 25.390625 64.0625 20.109375 62.109375 
Q 14.84375 60.15625 11.71875 51.171875 
L 4.6875 52.34375 
Q 7.03125 59.375 11.125 64.0625 
Q 15.234375 68.75 22.265625 69.53125 
Q 29.296875 70.3125 34.5625 67.765625 
Q 39.84375 65.234375 41.984375 59.953125 
Q 44.140625 54.6875 42.578125 48.4375 
Q 41.015625 42.1875 33.59375 37.5 
Q 39.0625 35.15625 41.984375 30.46875 
Q 44.921875 25.78125 43.9375 18.15625 
Q 42.96875 10.546875 37.109375 5.859375 
Q 31.25 1.171875 23.828125 1.359375 
Q 16.40625 1.5625 10.9375 6.046875 
Q 5.46875 10.546875 3.90625 19.140625 
z
" id="SimHei-51"/>
       </defs>
       <use xlink:href="#SimHei-51"/>
       <use x="50" xlink:href="#SimHei-48"/>
       <use x="100" xlink:href="#SimHei-48"/>
      </g>
     </g>
    </g>
    <g id="xtick_5">
     <g id="line2d_5">
      <g>
       <use style="stroke:#000000;stroke-width:0.8;" x="230.088163" xlink:href="#m6841290767" y="273.312"/>
      </g>
     </g>
     <g id="text_5">
      <!-- 400 -->
      <g transform="translate(222.588163 287.187)scale(0.1 -0.1)">
       <defs>
        <path d="M 31.25 17.1875 
L 1.171875 17.1875 
L 1.171875 23.828125 
L 32.8125 69.53125 
L 38.671875 69.53125 
L 38.671875 23.828125 
L 48.046875 23.828125 
L 48.046875 17.1875 
L 38.671875 17.1875 
L 38.671875 2.34375 
L 31.25 2.34375 
z
M 31.25 23.828125 
L 31.25 54.6875 
L 9.375 23.828125 
z
" id="SimHei-52"/>
       </defs>
       <use xlink:href="#SimHei-52"/>
       <use x="50" xlink:href="#SimHei-48"/>
       <use x="100" xlink:href="#SimHei-48"/>
      </g>
     </g>
    </g>
    <g id="xtick_6">
     <g id="line2d_6">
      <g>
       <use style="stroke:#000000;stroke-width:0.8;" x="270.720772" xlink:href="#m6841290767" y="273.312"/>
      </g>
     </g>
     <g id="text_6">
      <!-- 500 -->
      <g transform="translate(263.220772 287.187)scale(0.1 -0.1)">
       <defs>
        <path d="M 8.59375 20.703125 
Q 11.328125 10.15625 17.96875 8.984375 
Q 24.609375 7.8125 28.703125 10.34375 
Q 32.8125 12.890625 34.5625 16.984375 
Q 36.328125 21.09375 36.125 26.171875 
Q 35.9375 31.25 33.390625 34.765625 
Q 30.859375 38.28125 26.953125 39.453125 
Q 23.046875 40.625 18.15625 39.453125 
Q 13.28125 38.28125 10.15625 33.984375 
L 3.515625 34.765625 
Q 4.296875 37.109375 10.9375 68.359375 
L 41.796875 68.359375 
L 41.796875 61.328125 
L 16.796875 61.328125 
Q 14.84375 50.78125 12.890625 44.53125 
Q 18.75 47.265625 23.828125 47.0625 
Q 28.90625 46.875 33.59375 44.71875 
Q 38.28125 42.578125 40.421875 38.859375 
Q 42.578125 35.15625 43.546875 31.4375 
Q 44.53125 27.734375 44.328125 23.4375 
Q 44.140625 19.140625 42.578125 14.640625 
Q 41.015625 10.15625 37.890625 7.21875 
Q 34.765625 4.296875 30.265625 2.53125 
Q 25.78125 0.78125 19.921875 1.171875 
Q 14.0625 1.5625 8.78125 5.46875 
Q 3.515625 9.375 1.5625 18.75 
z
" id="SimHei-53"/>
       </defs>
       <use xlink:href="#SimHei-53"/>
       <use x="50" xlink:href="#SimHei-48"/>
       <use x="100" xlink:href="#SimHei-48"/>
      </g>
     </g>
    </g>
    <g id="xtick_7">
     <g id="line2d_7">
      <g>
       <use style="stroke:#000000;stroke-width:0.8;" x="311.353381" xlink:href="#m6841290767" y="273.312"/>
      </g>
     </g>
     <g id="text_7">
      <!-- 600 -->
      <g transform="translate(303.853381 287.187)scale(0.1 -0.1)">
       <defs>
        <path d="M 3.515625 19.53125 
Q 4.296875 30.859375 6.046875 34.765625 
Q 7.8125 38.671875 11.328125 44.53125 
L 27.34375 69.53125 
L 36.328125 69.53125 
L 19.921875 43.75 
Q 30.46875 46.484375 36.71875 42.96875 
Q 42.96875 39.453125 45.109375 34.953125 
Q 47.265625 30.46875 47.453125 25.1875 
Q 47.65625 19.921875 45.890625 14.84375 
Q 44.140625 9.765625 39.640625 5.65625 
Q 35.15625 1.5625 27.140625 1.171875 
Q 19.140625 0.78125 13.46875 4.09375 
Q 7.8125 7.421875 5.65625 13.46875 
Q 3.515625 19.53125 4.296875 30.859375 
z
M 12.5 16.015625 
Q 19.53125 8.59375 25.390625 8.203125 
Q 31.25 7.8125 35.15625 12.109375 
Q 39.0625 16.40625 39.0625 24.609375 
Q 39.0625 32.8125 34.171875 35.9375 
Q 29.296875 39.0625 23.234375 38.28125 
Q 17.1875 37.5 14.453125 32.421875 
Q 11.71875 27.34375 12.109375 21.671875 
Q 12.5 16.015625 19.53125 8.59375 
z
" id="SimHei-54"/>
       </defs>
       <use xlink:href="#SimHei-54"/>
       <use x="50" xlink:href="#SimHei-48"/>
       <use x="100" xlink:href="#SimHei-48"/>
      </g>
     </g>
    </g>
    <g id="xtick_8">
     <g id="line2d_8">
      <g>
       <use style="stroke:#000000;stroke-width:0.8;" x="351.98599" xlink:href="#m6841290767" y="273.312"/>
      </g>
     </g>
     <g id="text_8">
      <!-- 700 -->
      <g transform="translate(344.48599 287.187)scale(0.1 -0.1)">
       <defs>
        <path d="M 13.28125 2.34375 
Q 20.3125 32.03125 37.890625 61.328125 
L 4.296875 61.328125 
L 4.296875 68.359375 
L 46.09375 68.359375 
L 46.09375 61.71875 
Q 27.734375 32.03125 21.875 2.34375 
L 13.28125 2.34375 
z
" id="SimHei-55"/>
       </defs>
       <use xlink:href="#SimHei-55"/>
       <use x="50" xlink:href="#SimHei-48"/>
       <use x="100" xlink:href="#SimHei-48"/>
      </g>
     </g>
    </g>
    <g id="xtick_9">
     <g id="line2d_9">
      <g>
       <use style="stroke:#000000;stroke-width:0.8;" x="392.618599" xlink:href="#m6841290767" y="273.312"/>
      </g>
     </g>
     <g id="text_9">
      <!-- 800 -->
      <g transform="translate(385.118599 287.187)scale(0.1 -0.1)">
       <defs>
        <path d="M 2.734375 16.796875 
Q 2.734375 26.171875 5.078125 30.65625 
Q 7.421875 35.15625 12.890625 37.890625 
Q 8.203125 40.625 6.640625 43.9375 
Q 5.078125 47.265625 4.875 51.5625 
Q 4.6875 55.859375 6.046875 58.984375 
Q 7.421875 62.109375 10.15625 64.84375 
Q 12.890625 67.578125 16.203125 68.546875 
Q 19.53125 69.53125 23.4375 69.53125 
Q 27.34375 69.53125 30.46875 68.75 
Q 33.59375 67.96875 37.109375 65.421875 
Q 40.625 62.890625 42.1875 58.203125 
Q 43.75 53.515625 41.984375 47.265625 
Q 40.234375 41.015625 32.8125 37.5 
Q 39.453125 35.546875 42.1875 31.4375 
Q 44.921875 27.34375 44.921875 21.484375 
Q 44.921875 15.625 43.15625 12.109375 
Q 41.40625 8.59375 39.25 6.25 
Q 37.109375 3.90625 33.390625 2.53125 
Q 29.6875 1.171875 24.015625 1.171875 
Q 18.359375 1.171875 14.25 2.53125 
Q 10.15625 3.90625 7.421875 6.640625 
Q 4.6875 9.375 3.703125 13.078125 
Q 2.734375 16.796875 2.734375 26.171875 
z
M 10.9375 26.5625 
Q 10.546875 17.1875 12.296875 13.671875 
Q 14.0625 10.15625 18.75 9.171875 
Q 23.4375 8.203125 28.515625 9.375 
Q 33.59375 10.546875 35.546875 14.84375 
Q 37.5 19.140625 36.90625 23.4375 
Q 36.328125 27.734375 32.03125 30.65625 
Q 27.734375 33.59375 22.65625 33.203125 
Q 17.578125 32.8125 14.25 29.6875 
Q 10.9375 26.5625 10.546875 17.1875 
z
M 12.109375 56.25 
Q 12.109375 48.4375 14.84375 44.921875 
Q 17.578125 41.40625 23.4375 41.40625 
Q 29.296875 41.40625 32.21875 44.921875 
Q 35.15625 48.4375 34.953125 53.3125 
Q 34.765625 58.203125 31.4375 60.546875 
Q 28.125 62.890625 22.453125 62.5 
Q 16.796875 62.109375 14.453125 59.171875 
Q 12.109375 56.25 12.109375 48.4375 
z
" id="SimHei-56"/>
       </defs>
       <use xlink:href="#SimHei-56"/>
       <use x="50" xlink:href="#SimHei-48"/>
       <use x="100" xlink:href="#SimHei-48"/>
      </g>
     </g>
    </g>
    <g id="text_10">
     <!-- Number of Generation -->
     <g transform="translate(179.885 299.312)scale(0.1 -0.1)">
      <defs>
       <path d="M 44.53125 1.953125 
L 34.765625 1.953125 
L 13.28125 50.390625 
L 12.890625 50.390625 
L 12.890625 1.953125 
L 3.90625 1.953125 
L 3.90625 68.75 
L 13.671875 68.75 
L 35.15625 20.3125 
L 35.546875 20.3125 
L 35.546875 68.75 
L 44.53125 68.75 
z
" id="SimHei-78"/>
       <path d="M 43.75 1.953125 
L 35.9375 1.953125 
L 35.9375 10.15625 
Q 32.8125 5.859375 29.09375 3.515625 
Q 25.390625 1.171875 19.53125 1.171875 
Q 12.5 1.171875 8.984375 5.078125 
Q 5.46875 8.984375 5.46875 14.84375 
L 5.46875 45.703125 
L 13.28125 45.703125 
L 13.28125 17.578125 
Q 13.28125 12.890625 15.625 10.15625 
Q 17.96875 7.421875 21.875 7.421875 
Q 26.953125 7.421875 31.4375 12.6875 
Q 35.9375 17.96875 35.9375 25.78125 
L 35.9375 45.703125 
L 43.75 45.703125 
z
" id="SimHei-117"/>
       <path d="M 47.65625 1.953125 
L 39.84375 1.953125 
L 39.84375 33.59375 
Q 39.84375 35.9375 39.0625 37.5 
Q 38.28125 39.0625 35.9375 39.0625 
Q 33.203125 39.0625 30.859375 36.125 
Q 28.515625 33.203125 28.515625 28.515625 
L 28.515625 1.953125 
L 20.703125 1.953125 
L 20.703125 33.59375 
Q 20.703125 35.9375 19.921875 37.5 
Q 19.140625 39.0625 16.796875 39.0625 
Q 14.0625 39.0625 11.71875 36.125 
Q 9.375 33.203125 9.375 28.515625 
L 9.375 1.953125 
L 1.5625 1.953125 
L 1.5625 45.703125 
L 9.375 45.703125 
L 9.375 39.84375 
Q 11.328125 42.96875 14.0625 44.71875 
Q 16.796875 46.484375 19.921875 46.484375 
Q 23.046875 46.484375 25.1875 44.71875 
Q 27.34375 42.96875 28.125 39.84375 
Q 30.078125 42.96875 32.609375 44.71875 
Q 35.15625 46.484375 38.28125 46.484375 
Q 42.96875 46.484375 45.3125 43.9375 
Q 47.65625 41.40625 47.65625 36.71875 
z
" id="SimHei-109"/>
       <path d="M 44.140625 23.828125 
Q 44.140625 12.5 38.671875 6.828125 
Q 33.203125 1.171875 25.390625 1.171875 
Q 21.09375 1.171875 17.96875 2.734375 
Q 14.84375 4.296875 12.5 7.8125 
L 12.5 1.953125 
L 4.6875 1.953125 
L 4.6875 68.75 
L 12.5 68.75 
L 12.5 39.84375 
Q 14.84375 43.359375 17.96875 45.109375 
Q 21.09375 46.875 25.390625 46.875 
Q 33.203125 46.875 38.671875 41.015625 
Q 44.140625 35.15625 44.140625 23.828125 
z
M 35.546875 23.828125 
Q 35.546875 31.25 32.609375 35.546875 
Q 29.6875 39.84375 23.828125 39.84375 
Q 19.140625 39.84375 15.8125 35.546875 
Q 12.5 31.25 12.5 23.828125 
Q 12.5 16.40625 15.8125 12.296875 
Q 19.140625 8.203125 23.828125 8.203125 
Q 29.6875 8.203125 32.609375 12.296875 
Q 35.546875 16.40625 35.546875 23.828125 
z
" id="SimHei-98"/>
       <path d="M 44.53125 16.796875 
Q 43.75 9.765625 38.28125 5.46875 
Q 32.8125 1.171875 25.390625 1.171875 
Q 16.015625 1.171875 9.953125 7.21875 
Q 3.90625 13.28125 3.90625 23.828125 
Q 3.90625 34.375 9.953125 40.421875 
Q 16.015625 46.484375 25.390625 46.484375 
Q 33.59375 46.484375 38.859375 41.203125 
Q 44.140625 35.9375 44.140625 23.828125 
L 12.5 23.828125 
Q 12.5 15.234375 16.203125 11.71875 
Q 19.921875 8.203125 25.390625 8.203125 
Q 29.6875 8.203125 32.421875 10.34375 
Q 35.15625 12.5 35.9375 16.796875 
z
M 35.15625 30.078125 
Q 34.375 35.546875 31.640625 37.6875 
Q 28.90625 39.84375 24.609375 39.84375 
Q 20.703125 39.84375 17.578125 37.6875 
Q 14.453125 35.546875 12.890625 30.078125 
z
" id="SimHei-101"/>
       <path d="M 39.0625 37.890625 
Q 31.640625 39.0625 26.5625 35.734375 
Q 21.484375 32.421875 17.96875 24.21875 
L 17.96875 1.953125 
L 10.15625 1.953125 
L 10.15625 45.703125 
L 17.96875 45.703125 
L 17.96875 34.375 
Q 21.484375 40.625 26.75 43.546875 
Q 32.03125 46.484375 39.0625 46.484375 
z
" id="SimHei-114"/>
       <path id="SimHei-32"/>
       <path d="M 45.703125 23.828125 
Q 45.703125 13.671875 39.453125 7.421875 
Q 33.203125 1.171875 24.609375 1.171875 
Q 16.015625 1.171875 9.765625 7.421875 
Q 3.515625 13.671875 3.515625 23.828125 
Q 3.515625 33.984375 9.765625 40.234375 
Q 16.015625 46.484375 24.609375 46.484375 
Q 33.203125 46.484375 39.453125 40.234375 
Q 45.703125 33.984375 45.703125 23.828125 
z
M 37.109375 23.828125 
Q 37.109375 31.640625 33.203125 35.546875 
Q 29.296875 39.453125 24.609375 39.453125 
Q 19.921875 39.453125 16.015625 35.546875 
Q 12.109375 31.640625 12.109375 23.828125 
Q 12.109375 16.015625 16.015625 12.109375 
Q 19.921875 8.203125 24.609375 8.203125 
Q 29.296875 8.203125 33.203125 12.109375 
Q 37.109375 16.015625 37.109375 23.828125 
z
" id="SimHei-111"/>
       <path d="M 44.53125 59.765625 
Q 42.578125 60.9375 39.84375 61.71875 
Q 37.109375 62.5 32.8125 62.5 
Q 28.515625 62.5 26.953125 60.34375 
Q 25.390625 58.203125 25.390625 55.078125 
L 25.390625 45.703125 
L 41.40625 45.703125 
L 41.40625 39.453125 
L 25.390625 39.453125 
L 25.390625 1.953125 
L 17.578125 1.953125 
L 17.578125 39.453125 
L 4.296875 39.453125 
L 4.296875 45.703125 
L 17.578125 45.703125 
L 17.578125 54.6875 
Q 17.578125 61.71875 21.875 65.625 
Q 26.171875 69.53125 33.203125 69.53125 
Q 37.5 69.53125 40.03125 68.9375 
Q 42.578125 68.359375 44.53125 67.578125 
z
" id="SimHei-102"/>
       <path d="M 44.53125 1.171875 
L 37.890625 1.171875 
L 36.71875 6.640625 
Q 35.15625 4.296875 31.828125 2.734375 
Q 28.515625 1.171875 24.609375 1.171875 
Q 16.40625 1.171875 9.953125 8.78125 
Q 3.515625 16.40625 3.515625 33.203125 
Q 3.515625 51.5625 9.375 60.546875 
Q 15.234375 69.53125 25.390625 69.53125 
Q 34.375 69.53125 39.453125 62.890625 
Q 44.53125 56.25 44.53125 45.703125 
L 35.9375 45.703125 
Q 35.9375 53.90625 33.203125 58 
Q 30.46875 62.109375 25.390625 62.109375 
Q 19.140625 62.109375 16.015625 55.65625 
Q 12.890625 49.21875 12.890625 33.984375 
Q 12.890625 19.53125 16.796875 14.0625 
Q 20.703125 8.59375 25.78125 8.59375 
Q 30.859375 8.59375 33.78125 12.296875 
Q 36.71875 16.015625 36.71875 23.828125 
L 36.71875 28.125 
L 24.609375 28.125 
L 24.609375 35.546875 
L 44.53125 35.546875 
z
" id="SimHei-71"/>
       <path d="M 43.75 1.953125 
L 35.9375 1.953125 
L 35.9375 30.078125 
Q 35.9375 34.765625 33.59375 37.5 
Q 31.25 40.234375 27.34375 40.234375 
Q 22.265625 40.234375 17.765625 34.953125 
Q 13.28125 29.6875 13.28125 21.875 
L 13.28125 1.953125 
L 5.46875 1.953125 
L 5.46875 45.703125 
L 13.28125 45.703125 
L 13.28125 37.5 
Q 16.40625 41.796875 20.109375 44.140625 
Q 23.828125 46.484375 29.6875 46.484375 
Q 36.71875 46.484375 40.234375 42.578125 
Q 43.75 38.671875 43.75 32.8125 
z
" id="SimHei-110"/>
       <path d="M 44.921875 1.953125 
L 35.546875 1.953125 
Q 34.765625 2.734375 34.375 4.09375 
Q 33.984375 5.46875 33.984375 7.421875 
Q 31.25 4.296875 27.34375 2.734375 
Q 23.4375 1.171875 19.140625 1.171875 
Q 12.890625 1.171875 8.59375 4.296875 
Q 4.296875 7.421875 4.296875 13.28125 
Q 4.296875 19.140625 8.203125 22.65625 
Q 12.109375 26.171875 20.3125 27.34375 
Q 25.78125 28.125 29.875 29.296875 
Q 33.984375 30.46875 33.984375 32.421875 
Q 33.984375 34.765625 32.21875 37.109375 
Q 30.46875 39.453125 24.609375 39.453125 
Q 19.921875 39.453125 17.765625 37.6875 
Q 15.625 35.9375 14.84375 32.8125 
L 6.25 32.8125 
Q 7.03125 39.0625 11.90625 42.765625 
Q 16.796875 46.484375 24.609375 46.484375 
Q 33.203125 46.484375 37.5 42.578125 
Q 41.796875 38.671875 41.796875 31.640625 
L 41.796875 10.15625 
Q 41.796875 7.8125 42.578125 5.859375 
Q 43.359375 3.90625 44.921875 1.953125 
z
M 33.984375 16.40625 
L 33.984375 24.21875 
Q 31.640625 23.4375 29.484375 22.84375 
Q 27.34375 22.265625 22.265625 21.484375 
Q 16.40625 20.703125 14.640625 18.75 
Q 12.890625 16.796875 12.890625 14.0625 
Q 12.890625 11.71875 14.640625 9.953125 
Q 16.40625 8.203125 19.921875 8.203125 
Q 23.4375 8.203125 27.53125 10.15625 
Q 31.640625 12.109375 33.984375 16.40625 
z
" id="SimHei-97"/>
       <path d="M 42.96875 3.125 
Q 41.015625 2.34375 38.46875 1.75 
Q 35.9375 1.171875 31.640625 1.171875 
Q 24.609375 1.171875 20.3125 5.078125 
Q 16.015625 8.984375 16.015625 16.015625 
L 16.015625 39.453125 
L 2.734375 39.453125 
L 2.734375 45.703125 
L 16.015625 45.703125 
L 16.015625 60.9375 
L 23.828125 60.9375 
L 23.828125 45.703125 
L 39.84375 45.703125 
L 39.84375 39.453125 
L 23.828125 39.453125 
L 23.828125 15.625 
Q 23.828125 12.5 25.390625 10.34375 
Q 26.953125 8.203125 31.25 8.203125 
Q 35.546875 8.203125 38.28125 8.984375 
Q 41.015625 9.765625 42.96875 10.9375 
z
" id="SimHei-116"/>
       <path d="M 28.125 58.203125 
L 20.3125 58.203125 
L 20.3125 68.359375 
L 28.125 68.359375 
z
M 28.125 1.953125 
L 20.3125 1.953125 
L 20.3125 45.703125 
L 28.125 45.703125 
z
" id="SimHei-105"/>
      </defs>
      <use xlink:href="#SimHei-78"/>
      <use x="50" xlink:href="#SimHei-117"/>
      <use x="100" xlink:href="#SimHei-109"/>
      <use x="150" xlink:href="#SimHei-98"/>
      <use x="200" xlink:href="#SimHei-101"/>
      <use x="250" xlink:href="#SimHei-114"/>
      <use x="300" xlink:href="#SimHei-32"/>
      <use x="350" xlink:href="#SimHei-111"/>
      <use x="400" xlink:href="#SimHei-102"/>
      <use x="450" xlink:href="#SimHei-32"/>
      <use x="500" xlink:href="#SimHei-71"/>
      <use x="550" xlink:href="#SimHei-101"/>
      <use x="600" xlink:href="#SimHei-110"/>
      <use x="650" xlink:href="#SimHei-101"/>
      <use x="700" xlink:href="#SimHei-114"/>
      <use x="750" xlink:href="#SimHei-97"/>
      <use x="800" xlink:href="#SimHei-116"/>
      <use x="850" xlink:href="#SimHei-105"/>
      <use x="900" xlink:href="#SimHei-111"/>
      <use x="950" xlink:href="#SimHei-110"/>
     </g>
    </g>
   </g>
   <g id="matplotlib.axis_2">
    <g id="ytick_1">
     <g id="line2d_10">
      <defs>
       <path d="M 0 0 
L -3.5 0 
" id="m11cca11e8b" style="stroke:#000000;stroke-width:0.8;"/>
      </defs>
      <g>
       <use style="stroke:#000000;stroke-width:0.8;" x="51.325" xlink:href="#m11cca11e8b" y="256.811098"/>
      </g>
     </g>
     <g id="text_11">
      <!-- 8000 -->
      <g transform="translate(24.325 260.248598)scale(0.1 -0.1)">
       <use xlink:href="#SimHei-56"/>
       <use x="50" xlink:href="#SimHei-48"/>
       <use x="100" xlink:href="#SimHei-48"/>
       <use x="150" xlink:href="#SimHei-48"/>
      </g>
     </g>
    </g>
    <g id="ytick_2">
     <g id="line2d_11">
      <g>
       <use style="stroke:#000000;stroke-width:0.8;" x="51.325" xlink:href="#m11cca11e8b" y="226.84578"/>
      </g>
     </g>
     <g id="text_12">
      <!-- 9000 -->
      <g transform="translate(24.325 230.28328)scale(0.1 -0.1)">
       <defs>
        <path d="M 12.5 1.171875 
Q 21.09375 15.625 26.5625 27.34375 
Q 16.796875 25.78125 10.34375 29.875 
Q 3.90625 33.984375 2.53125 41.015625 
Q 1.171875 48.046875 2.734375 53.703125 
Q 4.296875 59.375 7.609375 63.078125 
Q 10.9375 66.796875 15.625 68.359375 
Q 20.3125 69.921875 24.015625 69.921875 
Q 27.734375 69.921875 31.640625 68.359375 
Q 35.546875 66.796875 38.671875 63.671875 
Q 41.796875 60.546875 42.96875 57.21875 
Q 44.140625 53.90625 44.140625 48.625 
Q 44.140625 43.359375 40.234375 35.15625 
Q 36.328125 26.953125 21.09375 1.171875 
z
M 9.765625 50 
Q 10.9375 39.84375 14.640625 36.515625 
Q 18.359375 33.203125 22.65625 33.59375 
Q 26.953125 33.984375 29.484375 35.9375 
Q 32.03125 37.890625 34.375 42.578125 
Q 35.9375 48.4375 35.15625 52.53125 
Q 34.375 56.640625 31.046875 59.375 
Q 27.734375 62.109375 23.828125 62.109375 
Q 21.484375 62.5 17.765625 60.9375 
Q 14.0625 59.375 11.90625 54.6875 
Q 9.765625 50 10.9375 39.84375 
z
" id="SimHei-57"/>
       </defs>
       <use xlink:href="#SimHei-57"/>
       <use x="50" xlink:href="#SimHei-48"/>
       <use x="100" xlink:href="#SimHei-48"/>
       <use x="150" xlink:href="#SimHei-48"/>
      </g>
     </g>
    </g>
    <g id="ytick_3">
     <g id="line2d_12">
      <g>
       <use style="stroke:#000000;stroke-width:0.8;" x="51.325" xlink:href="#m11cca11e8b" y="196.880462"/>
      </g>
     </g>
     <g id="text_13">
      <!-- 10000 -->
      <g transform="translate(19.325 200.317962)scale(0.1 -0.1)">
       <use xlink:href="#SimHei-49"/>
       <use x="50" xlink:href="#SimHei-48"/>
       <use x="100" xlink:href="#SimHei-48"/>
       <use x="150" xlink:href="#SimHei-48"/>
       <use x="200" xlink:href="#SimHei-48"/>
      </g>
     </g>
    </g>
    <g id="ytick_4">
     <g id="line2d_13">
      <g>
       <use style="stroke:#000000;stroke-width:0.8;" x="51.325" xlink:href="#m11cca11e8b" y="166.915145"/>
      </g>
     </g>
     <g id="text_14">
      <!-- 11000 -->
      <g transform="translate(19.325 170.352645)scale(0.1 -0.1)">
       <use xlink:href="#SimHei-49"/>
       <use x="50" xlink:href="#SimHei-49"/>
       <use x="100" xlink:href="#SimHei-48"/>
       <use x="150" xlink:href="#SimHei-48"/>
       <use x="200" xlink:href="#SimHei-48"/>
      </g>
     </g>
    </g>
    <g id="ytick_5">
     <g id="line2d_14">
      <g>
       <use style="stroke:#000000;stroke-width:0.8;" x="51.325" xlink:href="#m11cca11e8b" y="136.949827"/>
      </g>
     </g>
     <g id="text_15">
      <!-- 12000 -->
      <g transform="translate(19.325 140.387327)scale(0.1 -0.1)">
       <use xlink:href="#SimHei-49"/>
       <use x="50" xlink:href="#SimHei-50"/>
       <use x="100" xlink:href="#SimHei-48"/>
       <use x="150" xlink:href="#SimHei-48"/>
       <use x="200" xlink:href="#SimHei-48"/>
      </g>
     </g>
    </g>
    <g id="ytick_6">
     <g id="line2d_15">
      <g>
       <use style="stroke:#000000;stroke-width:0.8;" x="51.325" xlink:href="#m11cca11e8b" y="106.984509"/>
      </g>
     </g>
     <g id="text_16">
      <!-- 13000 -->
      <g transform="translate(19.325 110.422009)scale(0.1 -0.1)">
       <use xlink:href="#SimHei-49"/>
       <use x="50" xlink:href="#SimHei-51"/>
       <use x="100" xlink:href="#SimHei-48"/>
       <use x="150" xlink:href="#SimHei-48"/>
       <use x="200" xlink:href="#SimHei-48"/>
      </g>
     </g>
    </g>
    <g id="ytick_7">
     <g id="line2d_16">
      <g>
       <use style="stroke:#000000;stroke-width:0.8;" x="51.325" xlink:href="#m11cca11e8b" y="77.019191"/>
      </g>
     </g>
     <g id="text_17">
      <!-- 14000 -->
      <g transform="translate(19.325 80.456691)scale(0.1 -0.1)">
       <use xlink:href="#SimHei-49"/>
       <use x="50" xlink:href="#SimHei-52"/>
       <use x="100" xlink:href="#SimHei-48"/>
       <use x="150" xlink:href="#SimHei-48"/>
       <use x="200" xlink:href="#SimHei-48"/>
      </g>
     </g>
    </g>
    <g id="ytick_8">
     <g id="line2d_17">
      <g>
       <use style="stroke:#000000;stroke-width:0.8;" x="51.325" xlink:href="#m11cca11e8b" y="47.053873"/>
      </g>
     </g>
     <g id="text_18">
      <!-- 15000 -->
      <g transform="translate(19.325 50.491373)scale(0.1 -0.1)">
       <use xlink:href="#SimHei-49"/>
       <use x="50" xlink:href="#SimHei-53"/>
       <use x="100" xlink:href="#SimHei-48"/>
       <use x="150" xlink:href="#SimHei-48"/>
       <use x="200" xlink:href="#SimHei-48"/>
      </g>
     </g>
    </g>
    <g id="ytick_9">
     <g id="line2d_18">
      <g>
       <use style="stroke:#000000;stroke-width:0.8;" x="51.325" xlink:href="#m11cca11e8b" y="17.088555"/>
      </g>
     </g>
     <g id="text_19">
      <!-- 16000 -->
      <g transform="translate(19.325 20.526055)scale(0.1 -0.1)">
       <use xlink:href="#SimHei-49"/>
       <use x="50" xlink:href="#SimHei-54"/>
       <use x="100" xlink:href="#SimHei-48"/>
       <use x="150" xlink:href="#SimHei-48"/>
       <use x="200" xlink:href="#SimHei-48"/>
      </g>
     </g>
    </g>
    <g id="text_20">
     <!-- Value -->
     <g transform="translate(14.075 152.756)rotate(-90)scale(0.1 -0.1)">
      <defs>
       <path d="M 47.65625 68.75 
L 28.125 1.171875 
L 20.3125 1.171875 
L 0.78125 68.75 
L 10.15625 68.75 
L 23.828125 17.578125 
L 24.609375 17.578125 
L 38.28125 68.75 
z
" id="SimHei-86"/>
       <path d="M 28.515625 1.953125 
L 20.703125 1.953125 
L 20.703125 68.75 
L 28.515625 68.75 
z
" id="SimHei-108"/>
      </defs>
      <use xlink:href="#SimHei-86"/>
      <use x="50" xlink:href="#SimHei-97"/>
      <use x="100" xlink:href="#SimHei-108"/>
      <use x="150" xlink:href="#SimHei-117"/>
      <use x="200" xlink:href="#SimHei-101"/>
     </g>
    </g>
   </g>
   <g id="line2d_19">
    <path clip-path="url(#pb835aa53c3)" d="M 67.557727 152.951306 
L 67.964053 152.951306 
L 68.370379 92.141688 
L 68.776706 92.141688 
L 69.183032 19.296 
L 69.995684 60.450867 
L 70.808336 102.251786 
L 71.214662 148.150862 
L 71.620988 152.951606 
L 73.652619 153.056485 
L 74.058945 153.265043 
L 74.871597 154.13194 
L 76.903227 158.279739 
L 77.71588 159.490338 
L 78.122206 160.434246 
L 78.528532 161.060221 
L 78.934858 161.361073 
L 79.341184 162.013418 
L 79.74751 162.332848 
L 80.153836 162.933053 
L 80.560162 163.790661 
L 82.185466 163.833212 
L 83.810771 163.931498 
L 84.217097 164.030983 
L 84.623423 164.246733 
L 85.436075 165.267052 
L 87.06138 165.360544 
L 87.467706 165.537339 
L 87.874032 165.948763 
L 88.686684 166.183691 
L 89.09301 166.535784 
L 89.499336 167.225885 
L 89.905662 168.237814 
L 91.530967 168.323514 
L 92.343619 168.519188 
L 92.749945 168.75052 
L 93.156271 169.288398 
L 93.562597 169.462197 
L 95.594227 169.521228 
L 96.000554 169.632999 
L 97.219532 170.317107 
L 97.625858 170.510983 
L 100.470141 170.588293 
L 101.689119 171.062944 
L 102.095445 171.321245 
L 102.908097 172.364937 
L 103.314423 172.71643 
L 104.127075 172.8285 
L 104.533401 173.031965 
L 105.346054 173.714575 
L 105.75238 173.987259 
L 106.158706 174.476892 
L 106.971358 174.560496 
L 109.002988 174.638406 
L 109.409314 174.751974 
L 109.815641 175.02376 
L 110.628293 176.580757 
L 111.440945 177.031735 
L 111.847271 177.337382 
L 112.253597 177.841698 
L 112.659923 178.746651 
L 113.066249 179.165865 
L 113.472575 179.264152 
L 113.878901 179.493386 
L 114.285228 180.047145 
L 114.691554 180.399538 
L 116.723184 180.471155 
L 117.535836 180.849017 
L 118.348488 181.400978 
L 118.754815 181.53792 
L 119.161141 181.847462 
L 119.567467 182.35837 
L 119.973793 182.522281 
L 121.192771 183.449707 
L 122.005423 183.575562 
L 122.411749 183.782922 
L 122.818075 184.263266 
L 123.224402 185.119974 
L 125.662358 185.255118 
L 126.068684 185.369286 
L 126.47501 185.689015 
L 126.881336 186.308099 
L 127.693989 186.441445 
L 128.100315 186.756979 
L 128.506641 187.3443 
L 129.319293 189.506597 
L 131.350923 189.55604 
L 134.601532 190.108301 
L 135.82051 190.157743 
L 136.226836 190.278504 
L 136.633162 190.531711 
L 137.039489 190.996473 
L 137.445815 191.220314 
L 138.664793 191.328189 
L 140.290097 192.040464 
L 141.102749 193.295112 
L 142.728054 194.253703 
L 143.947032 194.355585 
L 144.353358 194.49822 
L 145.16601 195.284809 
L 145.978663 195.436134 
L 146.384989 195.726198 
L 147.197641 196.647932 
L 149.229271 196.748915 
L 149.635597 196.906832 
L 150.041923 197.1939 
L 150.44825 197.804593 
L 150.854576 198.667294 
L 151.260902 198.966049 
L 151.667228 199.054746 
L 152.073554 199.348706 
L 152.47988 200.004347 
L 154.51151 201.076806 
L 154.917837 201.812454 
L 155.324163 202.830676 
L 155.730489 203.367654 
L 156.136815 203.700269 
L 156.543141 204.349018 
L 157.355793 204.565967 
L 157.762119 204.817975 
L 160.200076 205.241086 
L 161.012728 205.668691 
L 161.419054 206.130157 
L 161.82538 206.935924 
L 163.450684 206.972482 
L 163.85701 207.114517 
L 164.263337 207.445934 
L 164.669663 208.198663 
L 165.075989 209.316069 
L 167.107619 209.36731 
L 167.920271 209.577367 
L 168.326597 209.822483 
L 169.13925 210.962664 
L 169.545576 211.182309 
L 169.951902 211.818173 
L 170.358228 213.341311 
L 170.764554 213.804275 
L 171.577206 214.000548 
L 171.983532 214.301999 
L 172.389858 215.042442 
L 173.202511 215.174589 
L 174.015163 215.331607 
L 174.421489 215.57972 
L 175.234141 215.668717 
L 182.548011 215.720856 
L 183.360663 216.016314 
L 184.173315 216.92726 
L 185.392293 217.036334 
L 185.798619 217.207735 
L 186.204945 217.512183 
L 188.236576 217.587696 
L 190.674532 217.69647 
L 192.299837 217.858283 
L 193.112489 218.376383 
L 194.331467 218.43032 
L 194.737793 218.527408 
L 195.144119 218.840546 
L 195.550445 219.428765 
L 197.17575 219.547128 
L 197.582076 219.658299 
L 197.988402 219.895025 
L 199.20738 219.954057 
L 202.051663 220.040657 
L 202.457989 220.120364 
L 202.864315 220.336714 
L 203.270641 220.862605 
L 203.676967 221.122405 
L 208.55288 221.19552 
L 208.959206 221.277925 
L 209.771859 221.820597 
L 210.178185 222.224229 
L 210.584511 223.202297 
L 210.990837 224.855484 
L 211.397163 225.945323 
L 211.803489 226.516162 
L 213.835119 226.62134 
L 214.647772 226.90691 
L 215.86675 226.942568 
L 216.679402 227.192479 
L 217.085728 227.538279 
L 217.89838 228.83368 
L 219.117359 228.970022 
L 219.523685 229.131235 
L 219.930011 229.48153 
L 220.742663 230.861133 
L 224.399598 230.958221 
L 225.21225 231.430774 
L 226.024902 232.804084 
L 227.650207 233.220602 
L 228.462859 233.862459 
L 229.275511 234.592414 
L 230.900815 234.745837 
L 231.713467 234.858506 
L 232.52612 234.912444 
L 234.151424 235.435039 
L 234.55775 235.779341 
L 234.964076 236.804754 
L 235.370402 238.34587 
L 235.776728 239.164223 
L 237.808359 239.191491 
L 247.153859 239.283785 
L 248.372837 239.431813 
L 248.779163 239.793794 
L 249.185489 240.358341 
L 249.591815 241.234227 
L 249.998141 241.283071 
L 250.404468 241.569839 
L 250.810794 242.158357 
L 251.21712 243.251492 
L 251.623446 244.70511 
L 255.280381 244.80879 
L 257.312011 245.7506 
L 257.718337 246.091605 
L 258.124663 246.743051 
L 258.530989 246.922543 
L 265.844859 246.995359 
L 266.251185 247.068175 
L 266.657511 247.311493 
L 267.063837 247.997399 
L 267.470163 249.355727 
L 272.752402 249.518738 
L 273.565055 249.829479 
L 278.440968 249.913981 
L 278.847294 249.999382 
L 279.25362 250.259182 
L 280.066272 251.506038 
L 280.878924 251.567168 
L 285.348511 251.664855 
L 285.754837 251.790409 
L 286.161163 252.084369 
L 286.567489 252.741209 
L 286.973816 252.976137 
L 289.818098 253.045956 
L 290.224424 253.140347 
L 290.63075 253.410035 
L 291.443403 254.353942 
L 335.32662 254.463316 
L 335.732946 254.560703 
L 336.139272 254.81391 
L 336.545598 255.281369 
L 336.951925 256.391584 
L 341.421512 256.488671 
L 341.827838 256.574972 
L 342.234164 256.823084 
L 343.046816 256.93096 
L 369.864338 257.01726 
L 371.083316 257.202146 
L 372.70862 257.269568 
L 373.521273 257.350474 
L 378.397186 257.417596 
L 378.803512 257.532663 
L 379.209838 257.783772 
L 380.835142 258.091516 
L 381.647794 258.728879 
L 386.930034 258.791806 
L 387.33636 258.896684 
L 387.742686 259.21132 
L 388.555338 260.826451 
L 390.180642 260.919943 
L 390.993294 261.216 
L 392.212273 261.216 
L 392.212273 261.216 
" style="fill:none;stroke:#1f77b4;stroke-linecap:square;stroke-width:1.5;"/>
   </g>
   <g id="line2d_20">
    <path clip-path="url(#pb835aa53c3)" d="M 67.557727 152.951306 
L 72.027314 152.981272 
L 72.43364 153.460717 
L 73.246293 153.490682 
L 73.652619 155.138775 
L 74.058945 155.138775 
L 74.465271 157.775723 
L 74.871597 157.775723 
L 75.277923 158.704647 
L 76.090575 158.704647 
L 77.309553 161.910936 
L 78.122206 162.000832 
L 78.528532 163.828717 
L 83.404445 163.918613 
L 83.810771 165.267052 
L 85.842401 165.267052 
L 86.248727 166.04615 
L 87.467706 166.04615 
L 87.874032 168.233618 
L 90.718314 168.323514 
L 91.12464 169.462197 
L 94.375249 169.462197 
L 94.781575 170.001572 
L 95.187901 170.001572 
L 95.594227 170.510983 
L 97.625858 170.510983 
L 98.032184 170.870566 
L 100.063814 170.870566 
L 100.470141 171.020393 
L 100.876467 172.069179 
L 101.282793 172.698451 
L 102.501771 172.698451 
L 102.908097 173.59741 
L 104.127075 173.59741 
L 104.533401 173.98696 
L 104.939728 174.556301 
L 108.190336 174.616231 
L 108.596662 175.065711 
L 109.002988 176.534012 
L 109.409314 176.534012 
L 109.815641 176.713803 
L 110.221967 177.193249 
L 110.628293 177.193249 
L 111.034619 178.541688 
L 111.440945 179.140994 
L 112.253597 179.140994 
L 112.659923 180.399538 
L 115.504206 180.399538 
L 116.316858 181.298497 
L 117.12951 181.298497 
L 117.535836 182.257387 
L 117.942162 182.257387 
L 118.348488 182.796763 
L 119.161141 182.796763 
L 119.567467 183.485965 
L 120.786445 183.485965 
L 121.192771 185.134058 
L 124.037054 185.164023 
L 124.44338 186.302705 
L 126.47501 186.302705 
L 126.881336 186.842081 
L 127.287662 188.939653 
L 127.693989 189.508994 
L 129.725619 189.508994 
L 130.131945 189.688786 
L 130.944597 189.688786 
L 131.350923 190.108301 
L 135.007858 190.108301 
L 135.414184 191.217017 
L 137.039489 191.217017 
L 137.445815 191.546636 
L 138.258467 191.546636 
L 138.664793 193.074867 
L 139.071119 193.074867 
L 139.477445 193.494382 
L 140.290097 193.494382 
L 140.696423 194.243514 
L 142.321728 194.243514 
L 142.728054 195.262335 
L 144.353358 195.262335 
L 144.759684 195.68185 
L 145.16601 196.670705 
L 148.416619 196.700671 
L 148.822945 198.378728 
L 149.229271 198.858173 
L 150.44825 198.888139 
L 150.854576 200.146682 
L 151.260902 200.146682 
L 151.667228 200.566197 
L 152.47988 200.566197 
L 152.886206 201.045642 
L 153.292532 203.203145 
L 154.105184 203.203145 
L 154.51151 204.341827 
L 155.730489 204.341827 
L 156.136815 204.881202 
L 157.355793 204.881202 
L 157.762119 205.120925 
L 158.574771 205.120925 
L 158.981097 205.420578 
L 159.79375 205.420578 
L 160.200076 206.948809 
L 162.638032 206.948809 
L 163.044358 209.316069 
L 166.701293 209.405965 
L 167.107619 210.724439 
L 167.920271 210.724439 
L 168.326597 213.750936 
L 169.951902 213.750936 
L 170.358228 215.159306 
L 172.389858 215.159306 
L 172.796184 215.668717 
L 181.329032 215.668717 
L 181.735358 216.92726 
L 184.173315 216.92726 
L 184.579641 217.526566 
L 187.83025 217.586497 
L 188.236576 217.706358 
L 190.674532 217.706358 
L 191.080858 218.365595 
L 192.706163 218.365595 
L 193.112489 219.444347 
L 195.550445 219.474312 
L 195.956772 219.923792 
L 200.426359 219.983723 
L 200.832685 221.122405 
L 206.52125 221.122405 
L 206.927576 221.242266 
L 207.333902 221.242266 
L 207.740228 221.631815 
L 208.146554 221.631815 
L 208.55288 222.171191 
L 208.959206 222.171191 
L 209.365532 224.328694 
L 209.771859 224.328694 
L 210.178185 226.516162 
L 212.209815 226.516162 
L 212.616141 226.905711 
L 214.241446 226.905711 
L 214.647772 227.025572 
L 215.460424 227.025572 
L 215.86675 228.314081 
L 216.273076 228.853457 
L 217.085728 228.853457 
L 217.492054 229.15311 
L 218.711033 229.15311 
L 219.117359 230.861133 
L 222.774293 230.921064 
L 223.18062 231.040925 
L 223.586946 232.748948 
L 224.399598 232.748948 
L 224.805924 232.92874 
L 225.618576 232.988671 
L 226.024902 233.647908 
L 227.24388 233.647908 
L 227.650207 234.606798 
L 228.869185 234.606798 
L 229.275511 234.84652 
L 230.494489 234.84652 
L 230.900815 235.146173 
L 232.52612 235.146173 
L 232.932446 235.685549 
L 233.338772 239.191491 
L 246.341207 239.281387 
L 247.153859 239.341318 
L 247.560185 241.199168 
L 249.185489 241.199168 
L 249.591815 244.70511 
L 252.842424 244.70511 
L 253.24875 245.21452 
L 254.467728 245.21452 
L 254.874054 245.544139 
L 255.686707 245.544139 
L 256.093033 245.753896 
L 256.499359 246.922543 
L 265.032207 246.922543 
L 265.438533 249.349734 
L 270.314446 249.409665 
L 270.720772 249.829179 
L 277.628316 249.859145 
L 278.034642 251.567168 
L 284.535859 251.567168 
L 284.942185 252.975538 
L 289.005446 253.005503 
L 289.411772 254.353942 
L 334.920294 254.443838 
L 335.32662 256.391584 
L 339.796207 256.391584 
L 340.202533 256.93096 
L 367.832707 256.93096 
L 368.239033 257.200647 
L 370.270664 257.200647 
L 370.67699 257.350474 
L 377.178207 257.350474 
L 377.584534 257.829919 
L 379.209838 257.829919 
L 379.616164 258.728879 
L 386.117381 258.728879 
L 386.523707 260.826451 
L 388.555338 260.826451 
L 388.961664 261.216 
L 392.212273 261.216 
L 392.212273 261.216 
" style="fill:none;stroke:#ff7f0e;stroke-linecap:square;stroke-width:1.5;"/>
   </g>
   <g id="patch_3">
    <path d="M 51.325 273.312 
L 51.325 7.2 
" style="fill:none;stroke:#000000;stroke-linecap:square;stroke-linejoin:miter;stroke-width:0.8;"/>
   </g>
   <g id="patch_4">
    <path d="M 408.445 273.312 
L 408.445 7.2 
" style="fill:none;stroke:#000000;stroke-linecap:square;stroke-linejoin:miter;stroke-width:0.8;"/>
   </g>
   <g id="patch_5">
    <path d="M 51.325 273.312 
L 408.445 273.312 
" style="fill:none;stroke:#000000;stroke-linecap:square;stroke-linejoin:miter;stroke-width:0.8;"/>
   </g>
   <g id="patch_6">
    <path d="M 51.325 7.2 
L 408.445 7.2 
" style="fill:none;stroke:#000000;stroke-linecap:square;stroke-linejoin:miter;stroke-width:0.8;"/>
   </g>
   <g id="legend_1">
    <g id="patch_7">
     <path d="M 259.445 43.871875 
L 401.445 43.871875 
Q 403.445 43.871875 403.445 41.871875 
L 403.445 14.2 
Q 403.445 12.2 401.445 12.2 
L 259.445 12.2 
Q 257.445 12.2 257.445 14.2 
L 257.445 41.871875 
Q 257.445 43.871875 259.445 43.871875 
z
" style="fill:#ffffff;opacity:0.8;stroke:#cccccc;stroke-linejoin:miter;"/>
    </g>
    <g id="line2d_21">
     <path d="M 261.445 20.785937 
L 281.445 20.785937 
" style="fill:none;stroke:#1f77b4;stroke-linecap:square;stroke-width:1.5;"/>
    </g>
    <g id="line2d_22"/>
    <g id="text_21">
     <!-- 种群个体平均目标函数值 -->
     <g transform="translate(289.445 24.285937)scale(0.1 -0.1)">
      <defs>
       <path d="M 66.015625 62.5 
Q 66.015625 77.734375 65.625 82.421875 
L 73.828125 82.421875 
Q 73.4375 78.125 73.4375 62.5 
L 93.75 62.5 
Q 93.359375 58.203125 93.359375 50.78125 
L 93.359375 24.21875 
Q 93.359375 19.921875 93.75 14.453125 
L 85.9375 14.453125 
L 85.9375 22.265625 
L 73.4375 22.265625 
L 73.4375 5.859375 
Q 73.4375 -4.296875 73.828125 -10.9375 
L 65.625 -10.9375 
Q 66.015625 -4.296875 66.015625 5.859375 
L 66.015625 22.265625 
L 53.515625 22.265625 
L 53.515625 12.890625 
L 45.703125 12.890625 
Q 46.09375 17.578125 46.09375 23.4375 
L 46.09375 50 
Q 46.09375 58.203125 45.703125 62.5 
L 66.015625 62.5 
z
M 5.46875 50.78125 
Q 11.328125 50.390625 19.140625 50.390625 
L 22.265625 50.390625 
L 22.265625 67.578125 
Q 18.359375 66.40625 8.984375 64.453125 
Q 7.421875 67.96875 5.46875 71.484375 
Q 14.0625 71.875 22.0625 74.015625 
Q 30.078125 76.171875 36.71875 79.6875 
Q 39.0625 76.5625 42.578125 72.265625 
Q 38.671875 71.875 35.9375 71.09375 
Q 33.203125 70.3125 29.6875 69.53125 
L 29.6875 50.390625 
Q 34.765625 50.390625 42.1875 50.78125 
L 42.1875 43.75 
Q 34.765625 44.140625 29.6875 44.140625 
L 29.6875 3.515625 
Q 29.6875 -1.953125 30.078125 -10.15625 
L 21.875 -10.15625 
Q 22.265625 -1.953125 22.265625 3.515625 
L 22.265625 29.296875 
Q 19.140625 21.484375 16.59375 16.796875 
Q 14.0625 12.109375 9.765625 5.46875 
Q 6.640625 9.765625 3.90625 13.28125 
Q 9.375 19.140625 13.859375 26.953125 
Q 18.359375 34.765625 20.3125 44.140625 
L 14.453125 44.140625 
Q 8.984375 44.140625 5.46875 43.75 
z
M 66.015625 28.515625 
L 66.015625 56.25 
L 53.515625 56.25 
L 53.515625 28.515625 
z
M 85.9375 28.515625 
L 85.9375 56.25 
L 73.4375 56.25 
L 73.4375 28.515625 
z
M 37.109375 38.671875 
Q 38.28125 35.9375 40.234375 33.203125 
Q 42.1875 30.46875 44.53125 25.390625 
Q 41.015625 23.828125 37.890625 21.484375 
Q 35.9375 25.78125 34.5625 28.703125 
Q 33.203125 31.640625 30.859375 34.765625 
Q 33.203125 36.328125 37.109375 38.671875 
z
" id="SimHei-31181"/>
       <path d="M 39.0625 -6.640625 
L 39.0625 0.390625 
L 23.046875 0.390625 
L 23.046875 -9.375 
L 15.625 -9.375 
Q 16.015625 -3.515625 16.015625 21.875 
Q 12.890625 17.1875 9.375 13.28125 
Q 7.03125 16.40625 3.125 17.578125 
Q 7.03125 21.484375 10.9375 26.953125 
Q 14.84375 32.421875 16.40625 37.109375 
Q 13.28125 37.109375 8.59375 36.71875 
L 8.59375 43.359375 
Q 14.0625 42.96875 17.578125 42.96875 
Q 18.75 48.828125 18.75 53.125 
Q 10.546875 53.125 5.859375 52.734375 
L 5.859375 59.375 
Q 10.9375 58.984375 18.75 58.984375 
L 18.75 69.921875 
Q 16.40625 69.921875 10.15625 69.53125 
L 10.15625 76.5625 
Q 16.015625 76.171875 19.921875 76.171875 
L 46.09375 76.171875 
Q 45.703125 70.3125 45.703125 58.984375 
Q 48.046875 58.984375 51.171875 59.375 
L 51.171875 52.734375 
Q 48.046875 53.125 45.703125 53.125 
Q 45.703125 41.796875 46.09375 37.109375 
L 23.4375 37.109375 
Q 21.09375 30.078125 19.140625 27.34375 
L 46.484375 27.34375 
Q 46.09375 22.265625 46.09375 10.546875 
Q 46.09375 -1.171875 46.484375 -6.640625 
z
M 76.171875 19.921875 
Q 91.015625 19.921875 94.921875 20.3125 
L 94.921875 13.671875 
Q 91.015625 14.0625 76.171875 14.0625 
L 76.171875 3.515625 
Q 76.171875 -3.515625 76.5625 -10.9375 
L 68.75 -10.9375 
Q 69.140625 -3.515625 69.140625 3.515625 
L 69.140625 14.0625 
Q 55.46875 14.0625 50 13.671875 
L 50 20.3125 
Q 55.46875 19.921875 69.140625 19.921875 
L 69.140625 35.15625 
Q 57.421875 35.15625 53.125 34.765625 
L 53.125 41.40625 
Q 57.8125 41.015625 69.140625 41.015625 
L 69.140625 54.6875 
Q 58.984375 54.6875 52.734375 54.296875 
L 52.734375 60.9375 
Q 58.984375 60.546875 74.21875 60.546875 
Q 78.515625 69.921875 81.640625 80.859375 
Q 86.328125 78.515625 90.625 77.734375 
Q 89.0625 75.390625 86.71875 71.28125 
Q 84.375 67.1875 81.25 60.546875 
Q 87.890625 60.546875 92.96875 60.9375 
L 92.96875 54.296875 
Q 88.28125 54.6875 76.171875 54.6875 
L 76.171875 41.015625 
L 81.640625 41.015625 
L 91.796875 41.40625 
L 91.796875 34.765625 
Q 86.328125 35.15625 76.171875 35.15625 
z
M 39.0625 6.25 
L 39.0625 21.09375 
L 23.046875 21.09375 
L 23.046875 6.25 
z
M 38.671875 58.984375 
L 38.671875 69.921875 
L 25.78125 69.921875 
L 25.78125 58.984375 
z
M 38.671875 42.96875 
L 38.671875 53.125 
L 25.78125 53.125 
Q 25.390625 48.828125 24.609375 42.96875 
z
M 62.890625 65.234375 
Q 59.375 71.875 55.859375 76.953125 
Q 58.59375 78.125 61.328125 80.46875 
Q 64.84375 76.5625 69.140625 69.53125 
Q 65.234375 67.1875 62.890625 65.234375 
z
" id="SimHei-32676"/>
       <path d="M 53.515625 75.390625 
Q 69.921875 51.171875 96.09375 43.359375 
Q 92.1875 38.671875 90.234375 34.375 
Q 64.84375 45.3125 49.21875 69.140625 
Q 34.765625 46.09375 10.546875 33.203125 
Q 8.59375 36.71875 3.90625 40.625 
Q 22.65625 48.4375 33 60.546875 
Q 43.359375 72.65625 46.875 82.421875 
Q 51.5625 80.46875 56.25 78.90625 
Q 54.6875 76.953125 53.515625 75.390625 
z
M 45.703125 36.71875 
Q 45.703125 42.96875 44.921875 52.734375 
L 53.90625 52.734375 
Q 53.515625 46.09375 53.515625 36.328125 
L 53.515625 8.59375 
Q 53.515625 -0.390625 53.90625 -9.765625 
L 45.3125 -9.765625 
Q 45.703125 0 45.703125 8.203125 
z
" id="SimHei-20010"/>
       <path d="M 57.03125 60.15625 
Q 57.03125 74.21875 56.640625 80.078125 
L 64.453125 80.078125 
Q 64.0625 74.609375 64.0625 60.15625 
L 81.25 60.15625 
Q 89.0625 60.15625 92.578125 60.546875 
L 92.578125 53.515625 
Q 89.0625 53.90625 81.25 53.90625 
L 70.703125 53.90625 
Q 76.953125 28.90625 96.875 18.75 
Q 92.578125 16.40625 90.234375 12.109375 
Q 69.140625 28.125 64.0625 53.515625 
L 64.0625 16.015625 
Q 75.390625 16.015625 78.90625 16.40625 
L 78.90625 9.375 
Q 75.390625 9.765625 64.0625 9.765625 
Q 64.0625 1.171875 64.453125 -8.984375 
L 56.640625 -8.984375 
Q 57.03125 1.5625 57.03125 9.765625 
Q 50 9.765625 42.1875 9.375 
L 42.1875 16.40625 
Q 50 16.015625 57.03125 16.015625 
L 57.03125 53.90625 
Q 52.734375 28.125 31.25 10.15625 
Q 28.90625 13.671875 24.21875 16.015625 
Q 44.53125 29.296875 50 53.90625 
L 41.796875 53.90625 
Q 35.546875 53.90625 30.859375 53.515625 
L 30.859375 60.546875 
Q 35.546875 60.15625 41.796875 60.15625 
z
M 31.25 76.5625 
Q 28.515625 73.046875 23.828125 58.984375 
L 23.828125 8.984375 
Q 23.828125 -3.125 24.21875 -8.59375 
L 16.40625 -8.59375 
Q 16.796875 -3.515625 16.796875 8.59375 
L 16.796875 45.3125 
Q 14.84375 41.015625 8.984375 32.03125 
Q 7.03125 35.546875 3.515625 37.890625 
Q 8.203125 42.578125 14.453125 56.4375 
Q 20.703125 70.3125 22.265625 80.078125 
Q 26.5625 78.125 31.25 76.5625 
z
" id="SimHei-20307"/>
       <path d="M 70.703125 75.390625 
Q 76.5625 75.390625 85.15625 75.78125 
L 85.15625 68.359375 
Q 76.953125 68.75 70.703125 68.75 
L 54.296875 68.75 
L 54.296875 31.640625 
L 78.125 31.640625 
Q 86.71875 31.640625 94.140625 32.03125 
L 94.140625 24.609375 
Q 86.71875 25 78.125 25 
L 54.296875 25 
L 54.296875 7.03125 
Q 54.296875 -1.5625 54.6875 -9.375 
L 45.703125 -9.375 
Q 46.09375 -1.5625 46.09375 7.03125 
L 46.09375 25 
L 17.578125 25 
Q 12.109375 25 5.859375 24.609375 
L 5.859375 32.03125 
Q 12.109375 31.640625 18.359375 31.640625 
L 46.09375 31.640625 
L 46.09375 68.75 
L 27.734375 68.75 
Q 21.875 68.75 13.671875 68.359375 
L 13.671875 75.78125 
Q 21.875 75.390625 27.34375 75.390625 
z
M 61.328125 40.625 
Q 70.3125 51.5625 76.5625 64.453125 
Q 80.46875 61.71875 84.375 59.765625 
Q 74.609375 44.53125 67.96875 35.9375 
Q 64.84375 38.671875 61.328125 40.625 
z
M 30.859375 36.71875 
Q 25 48.4375 16.40625 58.203125 
Q 19.53125 60.546875 22.65625 63.28125 
Q 32.421875 51.5625 38.28125 42.578125 
Q 33.59375 39.0625 30.859375 36.71875 
z
" id="SimHei-24179"/>
       <path d="M 90.234375 4.296875 
Q 90.234375 -5.078125 83.78125 -7.03125 
Q 77.34375 -8.984375 69.140625 -9.375 
Q 68.359375 -4.296875 66.40625 0.390625 
Q 77.34375 -0.390625 80.078125 0.96875 
Q 82.8125 2.34375 82.8125 7.8125 
L 83.984375 57.8125 
L 55.46875 57.8125 
Q 53.515625 52.734375 50.96875 47.453125 
Q 48.4375 42.1875 45.703125 37.5 
Q 41.796875 39.84375 38.671875 41.015625 
Q 49.21875 56.640625 54.6875 81.25 
Q 59.375 79.6875 63.671875 78.515625 
Q 62.109375 76.171875 60.546875 72.65625 
Q 58.984375 69.140625 57.421875 64.453125 
L 92.1875 64.453125 
L 90.234375 4.296875 
z
M 19.53125 56.640625 
L 19.53125 68.359375 
Q 19.53125 74.609375 19.140625 79.6875 
L 27.734375 79.6875 
Q 27.34375 73.828125 27.34375 68.359375 
L 27.34375 56.640625 
L 29.6875 56.640625 
Q 34.375 56.640625 39.453125 57.03125 
L 39.453125 49.21875 
Q 34.375 49.609375 29.6875 49.609375 
L 27.34375 49.609375 
L 27.34375 17.1875 
L 39.0625 21.484375 
Q 38.671875 17.578125 39.453125 14.0625 
Q 19.140625 7.421875 15.03125 5.65625 
Q 10.9375 3.90625 7.421875 2.34375 
Q 5.859375 7.421875 3.90625 11.71875 
Q 8.984375 12.5 12.5 13.28125 
Q 16.015625 14.0625 19.53125 15.234375 
L 19.53125 49.609375 
L 17.578125 49.609375 
Q 13.28125 49.609375 6.25 49.21875 
L 6.25 57.03125 
Q 13.28125 56.640625 17.1875 56.640625 
z
M 77.34375 25.390625 
Q 73.046875 22.265625 64.640625 16.40625 
Q 56.25 10.546875 49.609375 4.6875 
Q 46.875 8.984375 44.53125 12.109375 
Q 52.34375 16.40625 58.78125 20.703125 
Q 65.234375 25 74.609375 32.421875 
Q 75.390625 28.90625 77.34375 25.390625 
z
M 58.984375 49.21875 
Q 64.453125 43.75 69.921875 35.9375 
Q 66.40625 33.203125 64.0625 30.859375 
Q 60.9375 36.328125 53.90625 44.140625 
Q 56.25 46.875 58.984375 49.21875 
z
" id="SimHei-22343"/>
       <path d="M 83.984375 76.5625 
Q 83.59375 65.234375 83.59375 55.078125 
L 83.59375 9.375 
Q 83.59375 3.515625 83.984375 -8.59375 
L 75.390625 -8.59375 
L 75.390625 -1.5625 
L 24.609375 -1.5625 
L 24.609375 -8.203125 
L 16.40625 -8.203125 
Q 16.796875 2.34375 16.796875 8.59375 
L 16.796875 55.078125 
Q 16.796875 67.96875 16.40625 76.5625 
L 83.984375 76.5625 
z
M 75.390625 4.6875 
L 75.390625 23.046875 
L 24.609375 23.046875 
L 24.609375 4.6875 
z
M 75.390625 29.296875 
L 75.390625 46.875 
L 24.609375 46.875 
L 24.609375 29.296875 
z
M 75.390625 53.125 
L 75.390625 70.3125 
L 24.609375 70.3125 
L 24.609375 53.125 
z
" id="SimHei-30446"/>
       <path d="M 19.921875 68.75 
Q 19.921875 75 19.53125 80.859375 
L 27.34375 80.859375 
Q 26.953125 75.390625 26.953125 68.75 
L 26.953125 59.375 
Q 33.203125 59.375 40.234375 59.765625 
L 40.234375 52.34375 
Q 33.203125 52.734375 26.953125 52.734375 
L 26.953125 39.453125 
Q 29.6875 41.40625 32.421875 43.75 
Q 37.5 35.546875 41.40625 27.734375 
Q 37.109375 25.78125 33.984375 23.4375 
Q 31.640625 31.25 26.953125 37.890625 
L 26.953125 7.421875 
Q 26.953125 -0.78125 27.34375 -8.984375 
L 19.53125 -8.984375 
Q 19.921875 -0.390625 19.921875 7.421875 
L 19.921875 32.8125 
Q 16.015625 21.875 7.8125 11.71875 
Q 5.46875 14.84375 1.953125 17.578125 
Q 8.59375 24.21875 12.6875 34.171875 
Q 16.796875 44.140625 17.96875 52.734375 
Q 10.546875 52.734375 5.078125 51.953125 
L 5.078125 59.765625 
Q 12.5 59.375 19.921875 59.375 
z
M 80.859375 48.828125 
Q 88.671875 48.828125 94.53125 49.21875 
L 94.53125 41.796875 
Q 88.671875 42.1875 82.421875 42.1875 
L 70.3125 42.1875 
L 70.3125 2.734375 
Q 70.3125 -3.515625 66.796875 -5.46875 
Q 63.28125 -7.421875 54.296875 -8.59375 
Q 53.515625 -3.90625 51.171875 0.390625 
Q 58.984375 0.390625 60.9375 0.96875 
Q 62.890625 1.5625 62.890625 5.46875 
L 62.890625 42.1875 
L 53.125 42.1875 
Q 43.359375 42.1875 39.0625 41.40625 
L 39.0625 49.21875 
Q 44.140625 48.828125 53.125 48.828125 
z
M 76.5625 74.609375 
Q 84.765625 74.609375 89.84375 75 
L 89.84375 67.1875 
Q 82.421875 67.96875 74.21875 67.96875 
L 55.078125 67.96875 
Q 48.828125 67.96875 42.96875 67.1875 
L 42.96875 75 
Q 48.4375 74.609375 55.078125 74.609375 
z
M 82.421875 31.640625 
Q 91.015625 18.359375 96.875 7.8125 
Q 92.578125 5.859375 88.28125 3.125 
Q 83.984375 14.453125 75.390625 26.953125 
Q 79.296875 28.90625 82.421875 31.640625 
z
M 56.25 27.734375 
Q 54.6875 25.390625 50.390625 15.234375 
Q 46.09375 5.078125 43.75 0.78125 
Q 40.234375 2.734375 35.9375 4.296875 
Q 41.015625 12.109375 43.546875 18.546875 
Q 46.09375 25 47.65625 31.25 
Q 51.953125 29.296875 56.25 27.734375 
z
" id="SimHei-26631"/>
       <path d="M 18.75 3.125 
L 81.25 3.125 
L 81.25 34.765625 
Q 81.25 40.625 80.46875 48.046875 
L 89.0625 48.046875 
Q 88.671875 39.0625 88.671875 34.765625 
L 88.671875 0.78125 
Q 88.671875 -4.296875 89.0625 -9.765625 
L 81.25 -9.765625 
L 81.25 -3.515625 
L 10.9375 -3.515625 
Q 11.328125 0.78125 11.328125 21.484375 
Q 11.328125 42.1875 10.9375 48.046875 
L 19.140625 48.046875 
Q 18.75 43.75 18.75 38.671875 
z
M 85.15625 76.953125 
L 85.15625 69.53125 
Q 79.296875 67.578125 69.921875 63.078125 
Q 60.546875 58.59375 54.296875 55.859375 
L 54.296875 17.1875 
Q 54.296875 10.9375 50 9.171875 
Q 45.703125 7.421875 39.453125 6.25 
Q 38.671875 10.546875 36.71875 14.84375 
Q 42.96875 14.84375 45.109375 15.625 
Q 47.265625 16.40625 47.265625 21.484375 
L 47.265625 48.046875 
Q 47.265625 55.46875 46.484375 60.15625 
Q 50.390625 61.328125 57.8125 64.453125 
Q 65.234375 67.578125 70.3125 70.3125 
L 30.46875 70.3125 
Q 22.265625 70.3125 16.015625 69.921875 
L 16.015625 77.34375 
Q 23.828125 76.953125 30.46875 76.953125 
z
M 70.3125 27.34375 
Q 73.4375 24.609375 78.125 19.921875 
Q 75.390625 17.578125 72.65625 14.0625 
Q 68.75 18.359375 65.625 21.484375 
Q 62.5 24.609375 56.25 30.078125 
Q 58.984375 32.8125 60.9375 35.546875 
z
M 42.1875 28.125 
Q 39.453125 26.171875 34.953125 23.234375 
Q 30.46875 20.3125 25 15.625 
Q 23.828125 18.359375 20.703125 22.265625 
Q 23.4375 23.4375 29.484375 27.140625 
Q 35.546875 30.859375 39.84375 34.765625 
Q 40.625 31.640625 42.1875 28.125 
z
M 77.734375 49.609375 
Q 75 48.4375 71.28125 45.5 
Q 67.578125 42.578125 62.5 38.671875 
Q 60.546875 42.1875 58.59375 44.53125 
Q 62.890625 47.65625 65.625 50 
Q 68.359375 52.34375 71.875 55.859375 
Q 74.609375 52.734375 77.734375 49.609375 
z
M 36.71875 39.84375 
Q 34.375 42.96875 31.25 45.890625 
Q 28.125 48.828125 23.046875 52.34375 
Q 25.78125 55.078125 27.34375 57.8125 
Q 31.640625 54.6875 41.40625 46.09375 
Q 38.671875 42.578125 36.71875 39.84375 
z
" id="SimHei-20989"/>
       <path d="M 70.703125 76.953125 
Q 69.921875 75 68.75 71.671875 
Q 67.578125 68.359375 65.234375 59.765625 
L 83.203125 59.765625 
Q 87.109375 59.765625 92.578125 60.15625 
L 92.578125 53.125 
Q 88.28125 53.515625 85.9375 53.515625 
Q 85.9375 47.265625 83.78125 33.78125 
Q 81.640625 20.3125 76.171875 10.546875 
Q 80.078125 5.859375 84.953125 2.140625 
Q 89.84375 -1.5625 94.140625 -3.125 
Q 89.453125 -6.640625 87.890625 -9.765625 
Q 83.203125 -7.03125 79.296875 -3.515625 
Q 75.390625 0 71.484375 5.078125 
Q 67.1875 0.390625 62.296875 -2.921875 
Q 57.421875 -6.25 50 -10.15625 
Q 48.046875 -6.640625 44.53125 -4.6875 
Q 50.390625 -2.34375 57.03125 1.953125 
Q 63.671875 6.25 67.1875 10.546875 
Q 64.453125 16.015625 61.90625 22.265625 
Q 59.375 28.515625 57.421875 38.671875 
Q 56.25 35.546875 53.515625 30.46875 
Q 50.78125 32.03125 46.875 33.59375 
Q 53.125 44.53125 57.03125 57.421875 
Q 60.9375 70.3125 62.109375 79.6875 
Q 66.796875 77.734375 70.703125 76.953125 
z
M 32.8125 35.15625 
Q 31.25 33.59375 29.296875 30.078125 
L 50.78125 30.078125 
Q 48.4375 20.3125 42.578125 10.546875 
Q 48.828125 8.203125 52.34375 6.25 
Q 50.390625 3.515625 48.828125 0.390625 
Q 45.3125 2.734375 38.28125 5.078125 
Q 30.46875 -3.515625 11.328125 -10.15625 
Q 9.375 -5.859375 6.25 -4.296875 
Q 24.609375 0 31.25 7.421875 
Q 20.3125 10.15625 13.28125 12.109375 
Q 15.625 15.625 19.53125 23.828125 
Q 15.625 23.828125 6.640625 23.4375 
L 6.640625 30.46875 
Q 14.0625 30.078125 21.875 30.078125 
Q 23.4375 33.59375 24.21875 37.890625 
Q 28.515625 36.328125 32.8125 35.15625 
z
M 27.734375 61.71875 
Q 27.734375 71.09375 27.34375 79.6875 
L 35.15625 79.6875 
Q 34.765625 71.484375 34.765625 61.71875 
Q 48.046875 61.71875 53.515625 62.109375 
L 53.515625 55.078125 
Q 48.046875 55.46875 34.765625 55.46875 
Q 34.765625 44.140625 35.15625 37.890625 
L 27.34375 37.890625 
Q 27.734375 43.359375 27.734375 51.5625 
Q 25.78125 48.4375 20.3125 43.546875 
Q 14.84375 38.671875 10.15625 35.9375 
Q 8.203125 39.453125 4.296875 41.015625 
Q 7.8125 42.1875 13.671875 46.484375 
Q 19.53125 50.78125 22.65625 55.46875 
Q 14.84375 55.46875 7.8125 55.078125 
L 7.8125 62.109375 
Q 14.453125 61.71875 27.734375 61.71875 
z
M 62.109375 49.609375 
Q 65.625 26.5625 71.875 17.578125 
Q 75.78125 26.5625 77.140625 35.734375 
Q 78.515625 44.921875 78.90625 53.515625 
L 63.671875 53.515625 
L 62.109375 49.609375 
z
M 22.65625 15.625 
Q 27.34375 14.453125 35.546875 12.5 
Q 38.671875 16.40625 41.40625 23.828125 
L 26.953125 23.828125 
Q 25 19.921875 22.65625 15.625 
z
M 51.953125 75.390625 
Q 50 72.265625 48.828125 69.53125 
Q 47.65625 66.796875 45.703125 62.890625 
Q 42.578125 64.453125 39.453125 65.234375 
Q 42.578125 70.3125 45.3125 78.125 
Q 49.21875 76.171875 51.953125 75.390625 
z
M 40.234375 52.734375 
Q 45.3125 47.65625 50 42.578125 
Q 47.65625 40.625 44.921875 37.890625 
Q 39.453125 44.53125 35.9375 48.4375 
Q 38.28125 50.390625 40.234375 52.734375 
z
M 14.453125 78.125 
Q 19.921875 72.65625 23.4375 67.1875 
L 17.578125 63.671875 
Q 14.84375 69.140625 9.375 73.828125 
Q 12.890625 76.171875 14.453125 78.125 
z
" id="SimHei-25968"/>
       <path d="M 57.421875 69.53125 
L 57.421875 79.6875 
Q 62.109375 79.296875 67.96875 78.90625 
Q 66.015625 76.171875 65.625 69.53125 
L 80.078125 69.53125 
Q 86.71875 69.53125 91.796875 69.921875 
L 91.796875 62.890625 
Q 86.328125 63.28125 80.078125 63.28125 
L 65.234375 63.28125 
L 64.453125 54.6875 
L 84.375 54.6875 
Q 83.984375 50 83.984375 42.1875 
L 83.984375 2.34375 
Q 91.796875 2.34375 95.3125 2.734375 
L 95.3125 -4.296875 
Q 90.234375 -3.90625 81.25 -3.90625 
L 44.53125 -3.90625 
Q 35.546875 -3.90625 29.6875 -4.296875 
L 29.6875 2.734375 
Q 33.203125 2.34375 40.625 2.34375 
L 40.625 42.1875 
Q 40.625 49.609375 40.234375 54.6875 
L 56.25 54.6875 
L 57.03125 63.28125 
L 50 63.28125 
Q 40.234375 63.28125 34.765625 62.890625 
L 34.765625 69.921875 
Q 39.84375 69.53125 50 69.53125 
z
M 34.765625 76.5625 
Q 31.640625 73.046875 25.78125 58.59375 
L 25.78125 7.03125 
Q 25.78125 -1.171875 26.171875 -8.59375 
L 17.96875 -8.59375 
Q 18.359375 -1.953125 18.359375 5.859375 
L 18.359375 46.09375 
Q 13.671875 38.28125 9.765625 33.59375 
Q 6.640625 37.890625 3.90625 40.234375 
Q 7.8125 44.140625 14.640625 55.265625 
Q 21.484375 66.40625 25.390625 80.46875 
Q 30.859375 77.734375 34.765625 76.5625 
z
M 76.953125 41.40625 
L 76.953125 49.21875 
L 48.046875 49.21875 
L 48.046875 41.40625 
z
M 76.953125 2.34375 
L 76.953125 9.765625 
L 48.046875 9.765625 
L 48.046875 2.34375 
z
M 76.953125 15.625 
L 76.953125 22.65625 
L 48.046875 22.65625 
L 48.046875 15.625 
z
M 76.953125 28.515625 
L 76.953125 35.546875 
L 48.046875 35.546875 
L 48.046875 28.515625 
z
" id="SimHei-20540"/>
      </defs>
      <use xlink:href="#SimHei-31181"/>
      <use x="100" xlink:href="#SimHei-32676"/>
      <use x="200" xlink:href="#SimHei-20010"/>
      <use x="300" xlink:href="#SimHei-20307"/>
      <use x="400" xlink:href="#SimHei-24179"/>
      <use x="500" xlink:href="#SimHei-22343"/>
      <use x="600" xlink:href="#SimHei-30446"/>
      <use x="700" xlink:href="#SimHei-26631"/>
      <use x="800" xlink:href="#SimHei-20989"/>
      <use x="900" xlink:href="#SimHei-25968"/>
      <use x="1000" xlink:href="#SimHei-20540"/>
     </g>
    </g>
    <g id="line2d_23">
     <path d="M 261.445 35.121875 
L 281.445 35.121875 
" style="fill:none;stroke:#ff7f0e;stroke-linecap:square;stroke-width:1.5;"/>
    </g>
    <g id="line2d_24"/>
    <g id="text_22">
     <!-- 种群最优个体目标函数值 -->
     <g transform="translate(289.445 38.621875)scale(0.1 -0.1)">
      <defs>
       <path d="M 7.421875 4.296875 
Q 10.546875 4.6875 17.1875 5.46875 
L 17.1875 38.28125 
Q 12.109375 38.28125 6.640625 37.890625 
L 6.640625 44.53125 
Q 12.109375 44.140625 17.578125 44.140625 
L 78.515625 44.140625 
Q 85.546875 44.140625 92.1875 44.53125 
L 92.1875 37.890625 
Q 85.546875 38.28125 78.515625 38.28125 
L 47.65625 38.28125 
L 47.65625 10.546875 
L 53.125 12.109375 
Q 53.125 8.59375 53.515625 6.25 
Q 50.390625 5.46875 47.65625 5.078125 
Q 47.65625 -1.953125 48.046875 -8.59375 
L 40.625 -8.59375 
Q 41.015625 -1.953125 41.015625 3.90625 
Q 36.71875 3.125 28.3125 1.359375 
Q 19.921875 -0.390625 10.15625 -2.734375 
Q 8.984375 1.5625 7.421875 4.296875 
z
M 79.6875 76.953125 
Q 79.296875 71.875 79.296875 67.578125 
L 79.296875 60.546875 
Q 79.296875 56.25 79.6875 50.78125 
L 19.921875 50.78125 
Q 20.3125 56.25 20.3125 60.546875 
L 20.3125 67.578125 
Q 20.3125 71.875 19.921875 76.953125 
L 79.6875 76.953125 
z
M 51.5625 32.03125 
Q 58.59375 31.640625 64.453125 31.640625 
L 83.984375 31.640625 
Q 79.6875 15.234375 73.828125 6.25 
Q 83.59375 0 92.578125 -1.5625 
Q 89.0625 -4.296875 88.28125 -7.8125 
Q 78.515625 -4.6875 69.921875 2.34375 
Q 64.84375 -3.125 56.25 -8.984375 
Q 54.6875 -6.640625 50.78125 -4.296875 
Q 58.984375 -1.5625 64.84375 5.46875 
Q 58.203125 12.109375 54.6875 26.171875 
L 51.5625 26.171875 
z
M 71.875 66.40625 
L 71.875 71.875 
L 27.34375 71.875 
L 27.34375 66.40625 
z
M 71.875 55.859375 
L 71.875 60.9375 
L 27.34375 60.9375 
L 27.34375 55.859375 
z
M 60.9375 26.171875 
Q 62.5 16.796875 68.75 9.765625 
Q 73.4375 16.40625 75.78125 26.171875 
L 60.9375 26.171875 
z
M 41.015625 19.53125 
L 41.015625 26.171875 
L 23.828125 26.171875 
L 23.828125 19.53125 
z
M 41.015625 8.984375 
L 41.015625 14.453125 
L 23.828125 14.453125 
L 23.828125 6.640625 
z
M 41.015625 31.640625 
L 41.015625 38.28125 
L 23.828125 38.28125 
L 23.828125 31.640625 
z
" id="SimHei-26368"/>
       <path d="M 72.65625 5.46875 
Q 72.265625 1.5625 75.390625 0.78125 
Q 78.515625 0 81.25 0.1875 
Q 83.984375 0.390625 85.34375 1.953125 
Q 86.71875 3.515625 88.28125 12.5 
Q 91.015625 9.765625 96.875 8.203125 
Q 94.53125 -0.390625 92.375 -3.125 
Q 90.234375 -5.859375 85.546875 -6.25 
L 73.4375 -6.25 
Q 65.234375 -6.25 65.234375 3.125 
L 65.234375 47.65625 
L 60.15625 47.65625 
Q 58.203125 9.375 37.109375 -8.59375 
Q 34.375 -5.078125 29.296875 -3.515625 
Q 49.609375 10.546875 52.34375 47.65625 
L 45.3125 47.65625 
Q 36.71875 47.65625 30.859375 47.265625 
L 30.859375 54.296875 
Q 36.71875 53.90625 45.3125 53.90625 
L 52.734375 53.90625 
Q 52.734375 73.4375 52.34375 80.46875 
Q 55.078125 79.6875 61.328125 79.296875 
Q 60.15625 73.4375 60.15625 53.90625 
L 81.25 53.90625 
Q 85.546875 53.90625 92.578125 54.296875 
L 92.578125 47.265625 
Q 85.9375 47.65625 81.640625 47.65625 
L 72.65625 47.65625 
L 72.65625 5.46875 
z
M 3.125 37.109375 
Q 8.203125 42.1875 15.625 56.4375 
Q 23.046875 70.703125 25 81.25 
Q 28.90625 78.90625 34.765625 76.953125 
Q 31.25 73.4375 26.5625 59.765625 
L 26.5625 9.375 
Q 26.5625 -2.34375 26.953125 -8.203125 
L 18.75 -8.203125 
Q 19.140625 -2.734375 19.140625 8.984375 
L 19.140625 46.484375 
Q 14.0625 37.890625 8.59375 30.859375 
Q 6.640625 34.375 3.125 37.109375 
z
M 75.78125 78.515625 
Q 78.125 75 80.46875 71.671875 
Q 82.8125 68.359375 85.15625 65.625 
Q 82.03125 63.671875 78.515625 60.546875 
Q 76.171875 65.234375 69.53125 73.828125 
Q 72.265625 75.78125 75.78125 78.515625 
z
" id="SimHei-20248"/>
      </defs>
      <use xlink:href="#SimHei-31181"/>
      <use x="100" xlink:href="#SimHei-32676"/>
      <use x="200" xlink:href="#SimHei-26368"/>
      <use x="300" xlink:href="#SimHei-20248"/>
      <use x="400" xlink:href="#SimHei-20010"/>
      <use x="500" xlink:href="#SimHei-20307"/>
      <use x="600" xlink:href="#SimHei-30446"/>
      <use x="700" xlink:href="#SimHei-26631"/>
      <use x="800" xlink:href="#SimHei-20989"/>
      <use x="900" xlink:href="#SimHei-25968"/>
      <use x="1000" xlink:href="#SimHei-20540"/>
     </g>
    </g>
   </g>
  </g>
 </g>
 <defs>
  <clipPath id="pb835aa53c3">
   <rect height="266.112" width="357.12" x="51.325" y="7.2"/>
  </clipPath>
 </defs>
</svg>
