<?xml version="1.0" encoding="utf-8" standalone="no"?>
<!DOCTYPE svg PUBLIC "-//W3C//DTD SVG 1.1//EN"
  "http://www.w3.org/Graphics/SVG/1.1/DTD/svg11.dtd">
<!-- Created with matplotlib (https://matplotlib.org/) -->
<svg height="307.762pt" version="1.1" viewBox="0 0 410.645 307.762" width="410.645pt" xmlns="http://www.w3.org/2000/svg" xmlns:xlink="http://www.w3.org/1999/xlink">
 <metadata>
  <rdf:RDF xmlns:cc="http://creativecommons.org/ns#" xmlns:dc="http://purl.org/dc/elements/1.1/" xmlns:rdf="http://www.w3.org/1999/02/22-rdf-syntax-ns#">
   <cc:Work>
    <dc:type rdf:resource="http://purl.org/dc/dcmitype/StillImage"/>
    <dc:date>2021-04-13T03:26:54.777333</dc:date>
    <dc:format>image/svg+xml</dc:format>
    <dc:creator>
     <cc:Agent>
      <dc:title>Matplotlib v3.3.3, https://matplotlib.org/</dc:title>
     </cc:Agent>
    </dc:creator>
   </cc:Work>
  </rdf:RDF>
 </metadata>
 <defs>
  <style type="text/css">*{stroke-linecap:butt;stroke-linejoin:round;}</style>
 </defs>
 <g id="figure_1">
  <g id="patch_1">
   <path d="M 0 307.762 
L 410.645 307.762 
L 410.645 0 
L 0 0 
z
" style="fill:#ffffff;"/>
  </g>
  <g id="axes_1">
   <g id="patch_2">
    <path d="M 46.325 273.312 
L 403.445 273.312 
L 403.445 7.2 
L 46.325 7.2 
z
" style="fill:#ffffff;"/>
   </g>
   <g id="matplotlib.axis_1">
    <g id="xtick_1">
     <g id="line2d_1">
      <defs>
       <path d="M 0 0 
L 0 3.5 
" id="m052bcbfc99" style="stroke:#000000;stroke-width:0.8;"/>
      </defs>
      <g>
       <use style="stroke:#000000;stroke-width:0.8;" x="62.557727" xlink:href="#m052bcbfc99" y="273.312"/>
      </g>
     </g>
     <g id="text_1">
      <!-- 0 -->
      <g transform="translate(60.057727 287.187)scale(0.1 -0.1)">
       <defs>
        <path d="M 3.125 29.296875 
Q 3.90625 50 6.4375 56.046875 
Q 8.984375 62.109375 13.671875 66.015625 
Q 18.359375 69.921875 25.1875 69.921875 
Q 32.03125 69.921875 37.109375 64.25 
Q 42.1875 58.59375 43.75 50 
Q 45.3125 41.40625 44.71875 30.265625 
Q 44.140625 19.140625 40.8125 12.109375 
Q 37.5 5.078125 30.859375 2.34375 
Q 24.21875 -0.390625 17.578125 2.921875 
Q 10.9375 6.25 8.203125 11.71875 
Q 5.46875 17.1875 4.296875 23.234375 
Q 3.125 29.296875 3.90625 50 
z
M 12.890625 52.734375 
Q 10.546875 31.25 12.5 22.84375 
Q 14.453125 14.453125 18.9375 10.9375 
Q 23.4375 7.421875 28.125 9.5625 
Q 32.8125 11.71875 34.953125 18.15625 
Q 37.109375 24.609375 37.109375 32.21875 
Q 37.109375 39.84375 36.515625 46.09375 
Q 35.9375 52.34375 33 57.421875 
Q 30.078125 62.5 25.1875 62.6875 
Q 20.3125 62.890625 16.59375 57.8125 
Q 12.890625 52.734375 10.546875 31.25 
z
" id="SimHei-48"/>
       </defs>
       <use xlink:href="#SimHei-48"/>
      </g>
     </g>
    </g>
    <g id="xtick_2">
     <g id="line2d_2">
      <g>
       <use style="stroke:#000000;stroke-width:0.8;" x="127.553632" xlink:href="#m052bcbfc99" y="273.312"/>
      </g>
     </g>
     <g id="text_2">
      <!-- 200 -->
      <g transform="translate(120.053632 287.187)scale(0.1 -0.1)">
       <defs>
        <path d="M 4.6875 3.90625 
Q 5.078125 9.765625 10.15625 14.453125 
Q 15.234375 19.140625 23.046875 29.09375 
Q 30.859375 39.0625 33.203125 44.53125 
Q 35.546875 50 34.953125 53.90625 
Q 34.375 57.8125 31.25 60.34375 
Q 28.125 62.890625 24.015625 62.5 
Q 19.921875 62.109375 16.203125 59.375 
Q 12.5 56.640625 10.546875 51.171875 
L 3.125 52.34375 
Q 6.25 61.328125 11.125 65.421875 
Q 16.015625 69.53125 22.65625 69.921875 
Q 26.5625 70.3125 29.6875 69.71875 
Q 32.8125 69.140625 36.125 66.984375 
Q 39.453125 64.84375 41.59375 60.546875 
Q 43.75 56.25 43.15625 50.1875 
Q 42.578125 44.140625 37.109375 35.734375 
Q 31.640625 27.34375 16.015625 9.375 
L 44.140625 9.375 
L 44.140625 2.34375 
L 4.6875 2.34375 
z
" id="SimHei-50"/>
       </defs>
       <use xlink:href="#SimHei-50"/>
       <use x="50" xlink:href="#SimHei-48"/>
       <use x="100" xlink:href="#SimHei-48"/>
      </g>
     </g>
    </g>
    <g id="xtick_3">
     <g id="line2d_3">
      <g>
       <use style="stroke:#000000;stroke-width:0.8;" x="192.549537" xlink:href="#m052bcbfc99" y="273.312"/>
      </g>
     </g>
     <g id="text_3">
      <!-- 400 -->
      <g transform="translate(185.049537 287.187)scale(0.1 -0.1)">
       <defs>
        <path d="M 31.25 17.1875 
L 1.171875 17.1875 
L 1.171875 23.828125 
L 32.8125 69.53125 
L 38.671875 69.53125 
L 38.671875 23.828125 
L 48.046875 23.828125 
L 48.046875 17.1875 
L 38.671875 17.1875 
L 38.671875 2.34375 
L 31.25 2.34375 
z
M 31.25 23.828125 
L 31.25 54.6875 
L 9.375 23.828125 
z
" id="SimHei-52"/>
       </defs>
       <use xlink:href="#SimHei-52"/>
       <use x="50" xlink:href="#SimHei-48"/>
       <use x="100" xlink:href="#SimHei-48"/>
      </g>
     </g>
    </g>
    <g id="xtick_4">
     <g id="line2d_4">
      <g>
       <use style="stroke:#000000;stroke-width:0.8;" x="257.545442" xlink:href="#m052bcbfc99" y="273.312"/>
      </g>
     </g>
     <g id="text_4">
      <!-- 600 -->
      <g transform="translate(250.045442 287.187)scale(0.1 -0.1)">
       <defs>
        <path d="M 3.515625 19.53125 
Q 4.296875 30.859375 6.046875 34.765625 
Q 7.8125 38.671875 11.328125 44.53125 
L 27.34375 69.53125 
L 36.328125 69.53125 
L 19.921875 43.75 
Q 30.46875 46.484375 36.71875 42.96875 
Q 42.96875 39.453125 45.109375 34.953125 
Q 47.265625 30.46875 47.453125 25.1875 
Q 47.65625 19.921875 45.890625 14.84375 
Q 44.140625 9.765625 39.640625 5.65625 
Q 35.15625 1.5625 27.140625 1.171875 
Q 19.140625 0.78125 13.46875 4.09375 
Q 7.8125 7.421875 5.65625 13.46875 
Q 3.515625 19.53125 4.296875 30.859375 
z
M 12.5 16.015625 
Q 19.53125 8.59375 25.390625 8.203125 
Q 31.25 7.8125 35.15625 12.109375 
Q 39.0625 16.40625 39.0625 24.609375 
Q 39.0625 32.8125 34.171875 35.9375 
Q 29.296875 39.0625 23.234375 38.28125 
Q 17.1875 37.5 14.453125 32.421875 
Q 11.71875 27.34375 12.109375 21.671875 
Q 12.5 16.015625 19.53125 8.59375 
z
" id="SimHei-54"/>
       </defs>
       <use xlink:href="#SimHei-54"/>
       <use x="50" xlink:href="#SimHei-48"/>
       <use x="100" xlink:href="#SimHei-48"/>
      </g>
     </g>
    </g>
    <g id="xtick_5">
     <g id="line2d_5">
      <g>
       <use style="stroke:#000000;stroke-width:0.8;" x="322.541347" xlink:href="#m052bcbfc99" y="273.312"/>
      </g>
     </g>
     <g id="text_5">
      <!-- 800 -->
      <g transform="translate(315.041347 287.187)scale(0.1 -0.1)">
       <defs>
        <path d="M 2.734375 16.796875 
Q 2.734375 26.171875 5.078125 30.65625 
Q 7.421875 35.15625 12.890625 37.890625 
Q 8.203125 40.625 6.640625 43.9375 
Q 5.078125 47.265625 4.875 51.5625 
Q 4.6875 55.859375 6.046875 58.984375 
Q 7.421875 62.109375 10.15625 64.84375 
Q 12.890625 67.578125 16.203125 68.546875 
Q 19.53125 69.53125 23.4375 69.53125 
Q 27.34375 69.53125 30.46875 68.75 
Q 33.59375 67.96875 37.109375 65.421875 
Q 40.625 62.890625 42.1875 58.203125 
Q 43.75 53.515625 41.984375 47.265625 
Q 40.234375 41.015625 32.8125 37.5 
Q 39.453125 35.546875 42.1875 31.4375 
Q 44.921875 27.34375 44.921875 21.484375 
Q 44.921875 15.625 43.15625 12.109375 
Q 41.40625 8.59375 39.25 6.25 
Q 37.109375 3.90625 33.390625 2.53125 
Q 29.6875 1.171875 24.015625 1.171875 
Q 18.359375 1.171875 14.25 2.53125 
Q 10.15625 3.90625 7.421875 6.640625 
Q 4.6875 9.375 3.703125 13.078125 
Q 2.734375 16.796875 2.734375 26.171875 
z
M 10.9375 26.5625 
Q 10.546875 17.1875 12.296875 13.671875 
Q 14.0625 10.15625 18.75 9.171875 
Q 23.4375 8.203125 28.515625 9.375 
Q 33.59375 10.546875 35.546875 14.84375 
Q 37.5 19.140625 36.90625 23.4375 
Q 36.328125 27.734375 32.03125 30.65625 
Q 27.734375 33.59375 22.65625 33.203125 
Q 17.578125 32.8125 14.25 29.6875 
Q 10.9375 26.5625 10.546875 17.1875 
z
M 12.109375 56.25 
Q 12.109375 48.4375 14.84375 44.921875 
Q 17.578125 41.40625 23.4375 41.40625 
Q 29.296875 41.40625 32.21875 44.921875 
Q 35.15625 48.4375 34.953125 53.3125 
Q 34.765625 58.203125 31.4375 60.546875 
Q 28.125 62.890625 22.453125 62.5 
Q 16.796875 62.109375 14.453125 59.171875 
Q 12.109375 56.25 12.109375 48.4375 
z
" id="SimHei-56"/>
       </defs>
       <use xlink:href="#SimHei-56"/>
       <use x="50" xlink:href="#SimHei-48"/>
       <use x="100" xlink:href="#SimHei-48"/>
      </g>
     </g>
    </g>
    <g id="xtick_6">
     <g id="line2d_6">
      <g>
       <use style="stroke:#000000;stroke-width:0.8;" x="387.537252" xlink:href="#m052bcbfc99" y="273.312"/>
      </g>
     </g>
     <g id="text_6">
      <!-- 1000 -->
      <g transform="translate(377.537252 287.187)scale(0.1 -0.1)">
       <defs>
        <path d="M 21.875 56.25 
Q 16.796875 51.171875 8.984375 46.484375 
L 8.984375 53.90625 
Q 18.75 60.546875 25 69.53125 
L 29.6875 69.53125 
L 29.6875 2.34375 
L 21.875 2.34375 
z
" id="SimHei-49"/>
       </defs>
       <use xlink:href="#SimHei-49"/>
       <use x="50" xlink:href="#SimHei-48"/>
       <use x="100" xlink:href="#SimHei-48"/>
       <use x="150" xlink:href="#SimHei-48"/>
      </g>
     </g>
    </g>
    <g id="text_7">
     <!-- Number of Generation -->
     <g transform="translate(174.885 299.312)scale(0.1 -0.1)">
      <defs>
       <path d="M 44.53125 1.953125 
L 34.765625 1.953125 
L 13.28125 50.390625 
L 12.890625 50.390625 
L 12.890625 1.953125 
L 3.90625 1.953125 
L 3.90625 68.75 
L 13.671875 68.75 
L 35.15625 20.3125 
L 35.546875 20.3125 
L 35.546875 68.75 
L 44.53125 68.75 
z
" id="SimHei-78"/>
       <path d="M 43.75 1.953125 
L 35.9375 1.953125 
L 35.9375 10.15625 
Q 32.8125 5.859375 29.09375 3.515625 
Q 25.390625 1.171875 19.53125 1.171875 
Q 12.5 1.171875 8.984375 5.078125 
Q 5.46875 8.984375 5.46875 14.84375 
L 5.46875 45.703125 
L 13.28125 45.703125 
L 13.28125 17.578125 
Q 13.28125 12.890625 15.625 10.15625 
Q 17.96875 7.421875 21.875 7.421875 
Q 26.953125 7.421875 31.4375 12.6875 
Q 35.9375 17.96875 35.9375 25.78125 
L 35.9375 45.703125 
L 43.75 45.703125 
z
" id="SimHei-117"/>
       <path d="M 47.65625 1.953125 
L 39.84375 1.953125 
L 39.84375 33.59375 
Q 39.84375 35.9375 39.0625 37.5 
Q 38.28125 39.0625 35.9375 39.0625 
Q 33.203125 39.0625 30.859375 36.125 
Q 28.515625 33.203125 28.515625 28.515625 
L 28.515625 1.953125 
L 20.703125 1.953125 
L 20.703125 33.59375 
Q 20.703125 35.9375 19.921875 37.5 
Q 19.140625 39.0625 16.796875 39.0625 
Q 14.0625 39.0625 11.71875 36.125 
Q 9.375 33.203125 9.375 28.515625 
L 9.375 1.953125 
L 1.5625 1.953125 
L 1.5625 45.703125 
L 9.375 45.703125 
L 9.375 39.84375 
Q 11.328125 42.96875 14.0625 44.71875 
Q 16.796875 46.484375 19.921875 46.484375 
Q 23.046875 46.484375 25.1875 44.71875 
Q 27.34375 42.96875 28.125 39.84375 
Q 30.078125 42.96875 32.609375 44.71875 
Q 35.15625 46.484375 38.28125 46.484375 
Q 42.96875 46.484375 45.3125 43.9375 
Q 47.65625 41.40625 47.65625 36.71875 
z
" id="SimHei-109"/>
       <path d="M 44.140625 23.828125 
Q 44.140625 12.5 38.671875 6.828125 
Q 33.203125 1.171875 25.390625 1.171875 
Q 21.09375 1.171875 17.96875 2.734375 
Q 14.84375 4.296875 12.5 7.8125 
L 12.5 1.953125 
L 4.6875 1.953125 
L 4.6875 68.75 
L 12.5 68.75 
L 12.5 39.84375 
Q 14.84375 43.359375 17.96875 45.109375 
Q 21.09375 46.875 25.390625 46.875 
Q 33.203125 46.875 38.671875 41.015625 
Q 44.140625 35.15625 44.140625 23.828125 
z
M 35.546875 23.828125 
Q 35.546875 31.25 32.609375 35.546875 
Q 29.6875 39.84375 23.828125 39.84375 
Q 19.140625 39.84375 15.8125 35.546875 
Q 12.5 31.25 12.5 23.828125 
Q 12.5 16.40625 15.8125 12.296875 
Q 19.140625 8.203125 23.828125 8.203125 
Q 29.6875 8.203125 32.609375 12.296875 
Q 35.546875 16.40625 35.546875 23.828125 
z
" id="SimHei-98"/>
       <path d="M 44.53125 16.796875 
Q 43.75 9.765625 38.28125 5.46875 
Q 32.8125 1.171875 25.390625 1.171875 
Q 16.015625 1.171875 9.953125 7.21875 
Q 3.90625 13.28125 3.90625 23.828125 
Q 3.90625 34.375 9.953125 40.421875 
Q 16.015625 46.484375 25.390625 46.484375 
Q 33.59375 46.484375 38.859375 41.203125 
Q 44.140625 35.9375 44.140625 23.828125 
L 12.5 23.828125 
Q 12.5 15.234375 16.203125 11.71875 
Q 19.921875 8.203125 25.390625 8.203125 
Q 29.6875 8.203125 32.421875 10.34375 
Q 35.15625 12.5 35.9375 16.796875 
z
M 35.15625 30.078125 
Q 34.375 35.546875 31.640625 37.6875 
Q 28.90625 39.84375 24.609375 39.84375 
Q 20.703125 39.84375 17.578125 37.6875 
Q 14.453125 35.546875 12.890625 30.078125 
z
" id="SimHei-101"/>
       <path d="M 39.0625 37.890625 
Q 31.640625 39.0625 26.5625 35.734375 
Q 21.484375 32.421875 17.96875 24.21875 
L 17.96875 1.953125 
L 10.15625 1.953125 
L 10.15625 45.703125 
L 17.96875 45.703125 
L 17.96875 34.375 
Q 21.484375 40.625 26.75 43.546875 
Q 32.03125 46.484375 39.0625 46.484375 
z
" id="SimHei-114"/>
       <path id="SimHei-32"/>
       <path d="M 45.703125 23.828125 
Q 45.703125 13.671875 39.453125 7.421875 
Q 33.203125 1.171875 24.609375 1.171875 
Q 16.015625 1.171875 9.765625 7.421875 
Q 3.515625 13.671875 3.515625 23.828125 
Q 3.515625 33.984375 9.765625 40.234375 
Q 16.015625 46.484375 24.609375 46.484375 
Q 33.203125 46.484375 39.453125 40.234375 
Q 45.703125 33.984375 45.703125 23.828125 
z
M 37.109375 23.828125 
Q 37.109375 31.640625 33.203125 35.546875 
Q 29.296875 39.453125 24.609375 39.453125 
Q 19.921875 39.453125 16.015625 35.546875 
Q 12.109375 31.640625 12.109375 23.828125 
Q 12.109375 16.015625 16.015625 12.109375 
Q 19.921875 8.203125 24.609375 8.203125 
Q 29.296875 8.203125 33.203125 12.109375 
Q 37.109375 16.015625 37.109375 23.828125 
z
" id="SimHei-111"/>
       <path d="M 44.53125 59.765625 
Q 42.578125 60.9375 39.84375 61.71875 
Q 37.109375 62.5 32.8125 62.5 
Q 28.515625 62.5 26.953125 60.34375 
Q 25.390625 58.203125 25.390625 55.078125 
L 25.390625 45.703125 
L 41.40625 45.703125 
L 41.40625 39.453125 
L 25.390625 39.453125 
L 25.390625 1.953125 
L 17.578125 1.953125 
L 17.578125 39.453125 
L 4.296875 39.453125 
L 4.296875 45.703125 
L 17.578125 45.703125 
L 17.578125 54.6875 
Q 17.578125 61.71875 21.875 65.625 
Q 26.171875 69.53125 33.203125 69.53125 
Q 37.5 69.53125 40.03125 68.9375 
Q 42.578125 68.359375 44.53125 67.578125 
z
" id="SimHei-102"/>
       <path d="M 44.53125 1.171875 
L 37.890625 1.171875 
L 36.71875 6.640625 
Q 35.15625 4.296875 31.828125 2.734375 
Q 28.515625 1.171875 24.609375 1.171875 
Q 16.40625 1.171875 9.953125 8.78125 
Q 3.515625 16.40625 3.515625 33.203125 
Q 3.515625 51.5625 9.375 60.546875 
Q 15.234375 69.53125 25.390625 69.53125 
Q 34.375 69.53125 39.453125 62.890625 
Q 44.53125 56.25 44.53125 45.703125 
L 35.9375 45.703125 
Q 35.9375 53.90625 33.203125 58 
Q 30.46875 62.109375 25.390625 62.109375 
Q 19.140625 62.109375 16.015625 55.65625 
Q 12.890625 49.21875 12.890625 33.984375 
Q 12.890625 19.53125 16.796875 14.0625 
Q 20.703125 8.59375 25.78125 8.59375 
Q 30.859375 8.59375 33.78125 12.296875 
Q 36.71875 16.015625 36.71875 23.828125 
L 36.71875 28.125 
L 24.609375 28.125 
L 24.609375 35.546875 
L 44.53125 35.546875 
z
" id="SimHei-71"/>
       <path d="M 43.75 1.953125 
L 35.9375 1.953125 
L 35.9375 30.078125 
Q 35.9375 34.765625 33.59375 37.5 
Q 31.25 40.234375 27.34375 40.234375 
Q 22.265625 40.234375 17.765625 34.953125 
Q 13.28125 29.6875 13.28125 21.875 
L 13.28125 1.953125 
L 5.46875 1.953125 
L 5.46875 45.703125 
L 13.28125 45.703125 
L 13.28125 37.5 
Q 16.40625 41.796875 20.109375 44.140625 
Q 23.828125 46.484375 29.6875 46.484375 
Q 36.71875 46.484375 40.234375 42.578125 
Q 43.75 38.671875 43.75 32.8125 
z
" id="SimHei-110"/>
       <path d="M 44.921875 1.953125 
L 35.546875 1.953125 
Q 34.765625 2.734375 34.375 4.09375 
Q 33.984375 5.46875 33.984375 7.421875 
Q 31.25 4.296875 27.34375 2.734375 
Q 23.4375 1.171875 19.140625 1.171875 
Q 12.890625 1.171875 8.59375 4.296875 
Q 4.296875 7.421875 4.296875 13.28125 
Q 4.296875 19.140625 8.203125 22.65625 
Q 12.109375 26.171875 20.3125 27.34375 
Q 25.78125 28.125 29.875 29.296875 
Q 33.984375 30.46875 33.984375 32.421875 
Q 33.984375 34.765625 32.21875 37.109375 
Q 30.46875 39.453125 24.609375 39.453125 
Q 19.921875 39.453125 17.765625 37.6875 
Q 15.625 35.9375 14.84375 32.8125 
L 6.25 32.8125 
Q 7.03125 39.0625 11.90625 42.765625 
Q 16.796875 46.484375 24.609375 46.484375 
Q 33.203125 46.484375 37.5 42.578125 
Q 41.796875 38.671875 41.796875 31.640625 
L 41.796875 10.15625 
Q 41.796875 7.8125 42.578125 5.859375 
Q 43.359375 3.90625 44.921875 1.953125 
z
M 33.984375 16.40625 
L 33.984375 24.21875 
Q 31.640625 23.4375 29.484375 22.84375 
Q 27.34375 22.265625 22.265625 21.484375 
Q 16.40625 20.703125 14.640625 18.75 
Q 12.890625 16.796875 12.890625 14.0625 
Q 12.890625 11.71875 14.640625 9.953125 
Q 16.40625 8.203125 19.921875 8.203125 
Q 23.4375 8.203125 27.53125 10.15625 
Q 31.640625 12.109375 33.984375 16.40625 
z
" id="SimHei-97"/>
       <path d="M 42.96875 3.125 
Q 41.015625 2.34375 38.46875 1.75 
Q 35.9375 1.171875 31.640625 1.171875 
Q 24.609375 1.171875 20.3125 5.078125 
Q 16.015625 8.984375 16.015625 16.015625 
L 16.015625 39.453125 
L 2.734375 39.453125 
L 2.734375 45.703125 
L 16.015625 45.703125 
L 16.015625 60.9375 
L 23.828125 60.9375 
L 23.828125 45.703125 
L 39.84375 45.703125 
L 39.84375 39.453125 
L 23.828125 39.453125 
L 23.828125 15.625 
Q 23.828125 12.5 25.390625 10.34375 
Q 26.953125 8.203125 31.25 8.203125 
Q 35.546875 8.203125 38.28125 8.984375 
Q 41.015625 9.765625 42.96875 10.9375 
z
" id="SimHei-116"/>
       <path d="M 28.125 58.203125 
L 20.3125 58.203125 
L 20.3125 68.359375 
L 28.125 68.359375 
z
M 28.125 1.953125 
L 20.3125 1.953125 
L 20.3125 45.703125 
L 28.125 45.703125 
z
" id="SimHei-105"/>
      </defs>
      <use xlink:href="#SimHei-78"/>
      <use x="50" xlink:href="#SimHei-117"/>
      <use x="100" xlink:href="#SimHei-109"/>
      <use x="150" xlink:href="#SimHei-98"/>
      <use x="200" xlink:href="#SimHei-101"/>
      <use x="250" xlink:href="#SimHei-114"/>
      <use x="300" xlink:href="#SimHei-32"/>
      <use x="350" xlink:href="#SimHei-111"/>
      <use x="400" xlink:href="#SimHei-102"/>
      <use x="450" xlink:href="#SimHei-32"/>
      <use x="500" xlink:href="#SimHei-71"/>
      <use x="550" xlink:href="#SimHei-101"/>
      <use x="600" xlink:href="#SimHei-110"/>
      <use x="650" xlink:href="#SimHei-101"/>
      <use x="700" xlink:href="#SimHei-114"/>
      <use x="750" xlink:href="#SimHei-97"/>
      <use x="800" xlink:href="#SimHei-116"/>
      <use x="850" xlink:href="#SimHei-105"/>
      <use x="900" xlink:href="#SimHei-111"/>
      <use x="950" xlink:href="#SimHei-110"/>
     </g>
    </g>
   </g>
   <g id="matplotlib.axis_2">
    <g id="ytick_1">
     <g id="line2d_7">
      <defs>
       <path d="M 0 0 
L -3.5 0 
" id="m82a99fa63f" style="stroke:#000000;stroke-width:0.8;"/>
      </defs>
      <g>
       <use style="stroke:#000000;stroke-width:0.8;" x="46.325" xlink:href="#m82a99fa63f" y="246.948794"/>
      </g>
     </g>
     <g id="text_8">
      <!-- 750 -->
      <g transform="translate(24.325 250.386294)scale(0.1 -0.1)">
       <defs>
        <path d="M 13.28125 2.34375 
Q 20.3125 32.03125 37.890625 61.328125 
L 4.296875 61.328125 
L 4.296875 68.359375 
L 46.09375 68.359375 
L 46.09375 61.71875 
Q 27.734375 32.03125 21.875 2.34375 
L 13.28125 2.34375 
z
" id="SimHei-55"/>
        <path d="M 8.59375 20.703125 
Q 11.328125 10.15625 17.96875 8.984375 
Q 24.609375 7.8125 28.703125 10.34375 
Q 32.8125 12.890625 34.5625 16.984375 
Q 36.328125 21.09375 36.125 26.171875 
Q 35.9375 31.25 33.390625 34.765625 
Q 30.859375 38.28125 26.953125 39.453125 
Q 23.046875 40.625 18.15625 39.453125 
Q 13.28125 38.28125 10.15625 33.984375 
L 3.515625 34.765625 
Q 4.296875 37.109375 10.9375 68.359375 
L 41.796875 68.359375 
L 41.796875 61.328125 
L 16.796875 61.328125 
Q 14.84375 50.78125 12.890625 44.53125 
Q 18.75 47.265625 23.828125 47.0625 
Q 28.90625 46.875 33.59375 44.71875 
Q 38.28125 42.578125 40.421875 38.859375 
Q 42.578125 35.15625 43.546875 31.4375 
Q 44.53125 27.734375 44.328125 23.4375 
Q 44.140625 19.140625 42.578125 14.640625 
Q 41.015625 10.15625 37.890625 7.21875 
Q 34.765625 4.296875 30.265625 2.53125 
Q 25.78125 0.78125 19.921875 1.171875 
Q 14.0625 1.5625 8.78125 5.46875 
Q 3.515625 9.375 1.5625 18.75 
z
" id="SimHei-53"/>
       </defs>
       <use xlink:href="#SimHei-55"/>
       <use x="50" xlink:href="#SimHei-53"/>
       <use x="100" xlink:href="#SimHei-48"/>
      </g>
     </g>
    </g>
    <g id="ytick_2">
     <g id="line2d_8">
      <g>
       <use style="stroke:#000000;stroke-width:0.8;" x="46.325" xlink:href="#m82a99fa63f" y="213.299722"/>
      </g>
     </g>
     <g id="text_9">
      <!-- 1000 -->
      <g transform="translate(19.325 216.737222)scale(0.1 -0.1)">
       <use xlink:href="#SimHei-49"/>
       <use x="50" xlink:href="#SimHei-48"/>
       <use x="100" xlink:href="#SimHei-48"/>
       <use x="150" xlink:href="#SimHei-48"/>
      </g>
     </g>
    </g>
    <g id="ytick_3">
     <g id="line2d_9">
      <g>
       <use style="stroke:#000000;stroke-width:0.8;" x="46.325" xlink:href="#m82a99fa63f" y="179.650651"/>
      </g>
     </g>
     <g id="text_10">
      <!-- 1250 -->
      <g transform="translate(19.325 183.088151)scale(0.1 -0.1)">
       <use xlink:href="#SimHei-49"/>
       <use x="50" xlink:href="#SimHei-50"/>
       <use x="100" xlink:href="#SimHei-53"/>
       <use x="150" xlink:href="#SimHei-48"/>
      </g>
     </g>
    </g>
    <g id="ytick_4">
     <g id="line2d_10">
      <g>
       <use style="stroke:#000000;stroke-width:0.8;" x="46.325" xlink:href="#m82a99fa63f" y="146.001579"/>
      </g>
     </g>
     <g id="text_11">
      <!-- 1500 -->
      <g transform="translate(19.325 149.439079)scale(0.1 -0.1)">
       <use xlink:href="#SimHei-49"/>
       <use x="50" xlink:href="#SimHei-53"/>
       <use x="100" xlink:href="#SimHei-48"/>
       <use x="150" xlink:href="#SimHei-48"/>
      </g>
     </g>
    </g>
    <g id="ytick_5">
     <g id="line2d_11">
      <g>
       <use style="stroke:#000000;stroke-width:0.8;" x="46.325" xlink:href="#m82a99fa63f" y="112.352507"/>
      </g>
     </g>
     <g id="text_12">
      <!-- 1750 -->
      <g transform="translate(19.325 115.790007)scale(0.1 -0.1)">
       <use xlink:href="#SimHei-49"/>
       <use x="50" xlink:href="#SimHei-55"/>
       <use x="100" xlink:href="#SimHei-53"/>
       <use x="150" xlink:href="#SimHei-48"/>
      </g>
     </g>
    </g>
    <g id="ytick_6">
     <g id="line2d_12">
      <g>
       <use style="stroke:#000000;stroke-width:0.8;" x="46.325" xlink:href="#m82a99fa63f" y="78.703436"/>
      </g>
     </g>
     <g id="text_13">
      <!-- 2000 -->
      <g transform="translate(19.325 82.140936)scale(0.1 -0.1)">
       <use xlink:href="#SimHei-50"/>
       <use x="50" xlink:href="#SimHei-48"/>
       <use x="100" xlink:href="#SimHei-48"/>
       <use x="150" xlink:href="#SimHei-48"/>
      </g>
     </g>
    </g>
    <g id="ytick_7">
     <g id="line2d_13">
      <g>
       <use style="stroke:#000000;stroke-width:0.8;" x="46.325" xlink:href="#m82a99fa63f" y="45.054364"/>
      </g>
     </g>
     <g id="text_14">
      <!-- 2250 -->
      <g transform="translate(19.325 48.491864)scale(0.1 -0.1)">
       <use xlink:href="#SimHei-50"/>
       <use x="50" xlink:href="#SimHei-50"/>
       <use x="100" xlink:href="#SimHei-53"/>
       <use x="150" xlink:href="#SimHei-48"/>
      </g>
     </g>
    </g>
    <g id="ytick_8">
     <g id="line2d_14">
      <g>
       <use style="stroke:#000000;stroke-width:0.8;" x="46.325" xlink:href="#m82a99fa63f" y="11.405293"/>
      </g>
     </g>
     <g id="text_15">
      <!-- 2500 -->
      <g transform="translate(19.325 14.842793)scale(0.1 -0.1)">
       <use xlink:href="#SimHei-50"/>
       <use x="50" xlink:href="#SimHei-53"/>
       <use x="100" xlink:href="#SimHei-48"/>
       <use x="150" xlink:href="#SimHei-48"/>
      </g>
     </g>
    </g>
    <g id="text_16">
     <!-- Value -->
     <g transform="translate(14.075 152.756)rotate(-90)scale(0.1 -0.1)">
      <defs>
       <path d="M 47.65625 68.75 
L 28.125 1.171875 
L 20.3125 1.171875 
L 0.78125 68.75 
L 10.15625 68.75 
L 23.828125 17.578125 
L 24.609375 17.578125 
L 38.28125 68.75 
z
" id="SimHei-86"/>
       <path d="M 28.515625 1.953125 
L 20.703125 1.953125 
L 20.703125 68.75 
L 28.515625 68.75 
z
" id="SimHei-108"/>
      </defs>
      <use xlink:href="#SimHei-86"/>
      <use x="50" xlink:href="#SimHei-97"/>
      <use x="100" xlink:href="#SimHei-108"/>
      <use x="150" xlink:href="#SimHei-117"/>
      <use x="200" xlink:href="#SimHei-101"/>
     </g>
    </g>
   </g>
   <g id="line2d_15">
    <path clip-path="url(#p6ad518ade6)" d="M 62.557727 19.296 
L 62.882707 36.434818 
L 63.207686 71.934589 
L 63.532666 80.394638 
L 64.182625 150.206367 
L 64.507604 162.830826 
L 64.832584 168.719413 
L 65.157563 166.981102 
L 65.482543 176.980933 
L 65.807523 179.19908 
L 66.132502 168.904483 
L 66.457482 179.014683 
L 66.782461 171.531803 
L 67.107441 186.398635 
L 67.43242 189.332161 
L 68.082379 179.949454 
L 68.407359 168.741622 
L 68.732338 173.525847 
L 69.057318 185.371666 
L 69.382297 168.366098 
L 70.032256 160.941767 
L 70.682215 175.008425 
L 71.007195 169.523626 
L 71.332174 174.155084 
L 71.657154 165.658021 
L 71.982133 168.46368 
L 72.307113 161.142315 
L 72.632093 177.12024 
L 72.957072 182.55793 
L 73.282052 186.019074 
L 73.607031 176.684821 
L 74.25699 194.368081 
L 74.58197 173.0164 
L 74.906949 177.114856 
L 75.231929 179.718622 
L 75.556908 173.348179 
L 75.881888 180.271812 
L 76.206867 155.874217 
L 76.531847 159.839423 
L 76.856826 170.108447 
L 77.181806 163.114824 
L 77.506785 163.680128 
L 77.831765 165.020034 
L 78.156744 181.273882 
L 78.481724 172.233722 
L 78.806704 180.663488 
L 79.131683 171.688607 
L 79.456663 183.418674 
L 79.781642 189.922366 
L 80.106622 177.66872 
L 80.431601 179.989833 
L 80.756581 183.465109 
L 81.08156 190.725233 
L 81.40654 195.006068 
L 81.731519 196.95906 
L 82.056499 195.94555 
L 82.381478 177.786492 
L 82.706458 178.500525 
L 83.031437 173.651021 
L 83.356417 165.806077 
L 83.681396 166.987159 
L 84.331355 164.651913 
L 84.981314 159.85221 
L 85.306294 159.297673 
L 85.631274 156.399142 
L 85.956253 157.968535 
L 86.281233 161.414873 
L 86.606212 166.779208 
L 86.931192 158.733715 
L 87.581151 173.795712 
L 87.90613 158.989448 
L 88.23111 161.412181 
L 88.556089 173.81792 
L 88.881069 177.52874 
L 89.206048 166.676915 
L 89.531028 163.476215 
L 90.180987 159.797698 
L 90.505966 170.782774 
L 90.830946 162.455302 
L 91.480905 172.717596 
L 91.805885 166.765748 
L 92.130864 169.493342 
L 92.455844 166.979756 
L 92.780823 172.128064 
L 93.105803 173.130806 
L 93.430782 160.154378 
L 93.755762 160.945132 
L 94.080741 146.045323 
L 94.405721 154.408463 
L 94.7307 168.004707 
L 95.05568 161.167216 
L 95.380659 165.248848 
L 95.705639 158.702085 
L 96.030618 165.487756 
L 96.355598 163.775692 
L 96.680577 152.867336 
L 97.005557 148.503724 
L 97.330536 163.515921 
L 97.655516 163.914999 
L 97.980495 165.087332 
L 98.305475 160.008341 
L 98.630455 162.107371 
L 98.955434 161.446503 
L 99.280414 174.898729 
L 99.930373 158.404627 
L 100.255352 154.54777 
L 100.580332 156.284062 
L 101.230291 172.97804 
L 101.88025 177.778416 
L 102.530209 165.042243 
L 102.855188 170.819115 
L 103.180168 166.438679 
L 103.505147 177.671412 
L 103.830127 167.899049 
L 104.155106 168.095559 
L 104.480086 161.110685 
L 104.805066 175.015154 
L 105.130045 160.153705 
L 105.455025 154.590168 
L 105.780004 167.142618 
L 106.429963 154.736205 
L 106.754943 168.243615 
L 107.079922 167.819637 
L 107.729881 163.822127 
L 108.054861 165.341046 
L 108.37984 169.268566 
L 108.70482 180.423906 
L 109.029799 168.559244 
L 109.354779 176.757503 
L 109.679758 171.644863 
L 110.004738 162.405501 
L 110.329717 159.691367 
L 110.654697 157.977284 
L 110.979676 148.641685 
L 111.304656 158.790918 
L 111.629636 148.858385 
L 111.954615 153.500611 
L 112.279595 163.607446 
L 112.929554 146.687347 
L 113.579513 161.110012 
L 113.904492 145.414739 
L 114.229472 150.178102 
L 114.554451 146.364316 
L 114.879431 128.605009 
L 115.20441 141.609029 
L 115.854369 149.731915 
L 116.179349 140.557832 
L 116.829308 158.237054 
L 117.154287 157.380349 
L 117.479267 139.571914 
L 117.804247 142.143376 
L 118.129226 146.138867 
L 118.454206 147.29976 
L 118.779185 147.12815 
L 119.104165 165.076565 
L 119.429144 153.328328 
L 119.754124 156.930124 
L 120.079103 146.687347 
L 120.404083 153.871424 
L 120.729062 157.879701 
L 121.054042 149.576456 
L 121.379021 158.553356 
L 121.704001 160.972724 
L 122.02898 162.065646 
L 122.35396 162.318014 
L 122.678939 142.711373 
L 123.003919 151.218531 
L 123.978857 145.331962 
L 124.303837 140.416506 
L 124.628817 151.075186 
L 124.953796 146.102526 
L 125.278776 143.722864 
L 125.603755 151.020674 
L 125.928735 141.932733 
L 126.253714 150.099363 
L 126.578694 151.681542 
L 126.903673 154.316938 
L 127.228653 146.120697 
L 127.553632 150.565066 
L 127.878612 142.824434 
L 128.203591 145.573563 
L 128.528571 146.68129 
L 128.85355 152.426533 
L 129.17853 152.480371 
L 129.828489 138.264984 
L 130.478448 152.829649 
L 130.803428 159.351512 
L 131.128407 142.082135 
L 131.778366 156.491341 
L 132.103346 147.582412 
L 132.428325 147.354945 
L 132.753305 145.775457 
L 133.078284 145.78959 
L 133.403264 152.256941 
L 133.728243 143.547889 
L 134.053223 138.240084 
L 134.378202 150.843007 
L 134.703182 156.063997 
L 135.028161 148.573714 
L 135.353141 153.794031 
L 135.67812 143.815062 
L 136.0031 150.335579 
L 136.328079 138.935947 
L 136.653059 151.643855 
L 136.978038 152.038222 
L 137.627998 135.857057 
L 137.952977 132.898631 
L 138.277957 134.522535 
L 138.602936 140.891631 
L 138.927916 140.439387 
L 139.577875 154.440766 
L 139.902854 156.364147 
L 140.552813 140.872787 
L 140.877793 150.995774 
L 141.527752 145.391858 
L 141.852731 152.176857 
L 142.177711 152.258287 
L 142.50269 145.083632 
L 142.82767 147.87987 
L 143.152649 144.191259 
L 143.477629 151.316786 
L 143.802609 154.217336 
L 144.127588 151.162001 
L 144.452568 150.512574 
L 144.777547 141.637294 
L 145.102527 145.129395 
L 145.427506 146.989516 
L 145.752486 147.307836 
L 146.077465 146.390562 
L 146.402445 141.448187 
L 146.727424 134.53061 
L 147.052404 132.898631 
L 147.377383 142.519573 
L 147.702363 142.566009 
L 148.027342 138.544945 
L 148.352322 139.853221 
L 148.677301 138.203743 
L 149.002281 140.147313 
L 149.32726 147.487522 
L 149.65224 150.521995 
L 149.977219 146.286923 
L 150.302199 146.480069 
L 150.952158 140.270469 
L 151.277138 136.537441 
L 151.602117 148.770225 
L 151.927097 143.408582 
L 152.252076 150.291163 
L 152.577056 143.096318 
L 152.902035 139.469621 
L 153.227015 145.987446 
L 153.551994 145.483383 
L 153.876974 150.395475 
L 154.201953 143.152176 
L 154.526933 142.942878 
L 155.501871 147.604621 
L 155.826851 153.263049 
L 156.15183 141.554518 
L 156.47681 140.145968 
L 156.80179 155.735582 
L 157.126769 154.077356 
L 157.451749 151.06711 
L 157.776728 155.570029 
L 158.101708 146.609281 
L 158.426687 145.752576 
L 158.751667 150.81205 
L 159.076646 159.315844 
L 159.401626 155.701933 
L 159.726605 147.77825 
L 160.051585 152.685631 
L 160.376564 135.136294 
L 161.026523 145.149584 
L 161.351503 154.036977 
L 161.676482 144.830591 
L 162.001462 142.596966 
L 162.326441 136.460721 
L 162.651421 155.338523 
L 162.9764 150.142434 
L 163.62636 144.691284 
L 163.951339 146.515737 
L 164.276319 153.851907 
L 164.601298 150.617559 
L 164.926278 137.939934 
L 165.251257 147.511076 
L 165.576237 142.565336 
L 165.901216 152.07389 
L 166.226196 151.069802 
L 166.551175 155.248344 
L 166.876155 149.292458 
L 167.201134 150.620924 
L 167.851093 142.192504 
L 168.176073 139.960225 
L 168.501052 154.77793 
L 168.826032 144.237695 
L 169.151011 160.232444 
L 169.475991 152.462201 
L 169.800971 153.85931 
L 170.12595 168.162858 
L 170.775909 144.91606 
L 171.100889 145.589041 
L 171.425868 160.776886 
L 171.750848 142.555914 
L 172.075827 150.118879 
L 172.400807 149.986302 
L 172.725786 142.018875 
L 173.375745 149.091237 
L 173.700725 150.320774 
L 174.025704 144.813767 
L 174.350684 146.891933 
L 174.675663 159.091068 
L 175.000643 161.403432 
L 175.325622 154.752357 
L 175.650602 153.359285 
L 175.975581 152.754948 
L 176.300561 147.865065 
L 176.625541 137.29118 
L 176.95052 147.917557 
L 177.2755 151.299962 
L 177.600479 142.390361 
L 177.925459 149.400135 
L 178.250438 160.277534 
L 178.575418 155.525612 
L 178.900397 154.309535 
L 179.225377 157.593011 
L 179.550356 152.93598 
L 179.875336 152.360581 
L 180.200315 141.906487 
L 180.525295 146.391235 
L 180.850274 138.135099 
L 181.175254 136.908927 
L 181.500233 139.608255 
L 181.825213 146.760029 
L 182.475172 152.750237 
L 182.800152 147.232462 
L 183.125131 147.770847 
L 183.450111 150.808012 
L 183.77509 136.262192 
L 184.10007 139.49183 
L 184.425049 138.670119 
L 184.750029 145.655667 
L 185.075008 137.396165 
L 185.399988 150.894154 
L 186.049947 139.769098 
L 186.374926 146.964615 
L 186.699906 150.0536 
L 187.024885 154.86138 
L 187.349865 143.304269 
L 187.674844 145.111898 
L 187.999824 141.520869 
L 188.324803 140.303445 
L 188.649783 145.679894 
L 188.974762 146.928274 
L 189.299742 146.580343 
L 189.624722 146.725034 
L 189.949701 141.33378 
L 190.274681 149.275634 
L 190.59966 142.722813 
L 190.92464 154.117735 
L 191.249619 150.515265 
L 191.574599 151.100759 
L 191.899578 145.588368 
L 192.224558 148.380568 
L 192.549537 149.306591 
L 192.874517 147.077676 
L 193.199496 155.456968 
L 193.524476 155.543783 
L 193.849455 151.568481 
L 194.174435 150.054273 
L 194.499414 150.676781 
L 194.824394 155.547821 
L 195.149373 153.407067 
L 195.474353 162.087854 
L 195.799333 161.409489 
L 196.124312 161.544758 
L 196.449292 159.31719 
L 196.774271 165.542268 
L 197.099251 154.594206 
L 197.42423 158.515669 
L 197.74921 143.239663 
L 198.074189 149.394078 
L 198.399169 150.310006 
L 198.724148 153.071922 
L 199.049128 145.766035 
L 199.374107 154.182341 
L 199.699087 154.119754 
L 200.024066 142.609753 
L 200.349046 151.766338 
L 200.674025 157.106446 
L 200.999005 149.544153 
L 201.323984 146.288269 
L 201.648964 152.653327 
L 201.973943 146.728399 
L 202.298923 144.977301 
L 202.623903 152.78254 
L 202.948882 151.946024 
L 203.273862 154.915218 
L 203.598841 145.712197 
L 203.923821 139.842453 
L 204.2488 151.540889 
L 204.57378 150.85041 
L 204.898759 147.565588 
L 205.223739 151.082589 
L 205.548718 145.510976 
L 205.873698 143.450979 
L 206.198677 149.624911 
L 206.523657 151.540889 
L 206.848636 142.784728 
L 207.173616 157.97863 
L 207.498595 151.393506 
L 207.823575 156.282716 
L 208.148554 153.625786 
L 208.473534 165.60149 
L 208.798514 152.814843 
L 209.448473 161.54072 
L 209.773452 157.503505 
L 210.098432 163.312007 
L 210.748391 157.720205 
L 211.07337 157.46851 
L 211.39835 148.700907 
L 211.723329 163.406225 
L 212.048309 150.921073 
L 212.373288 154.58613 
L 213.023247 149.153151 
L 213.348227 151.926507 
L 213.673206 151.084608 
L 213.998186 153.429275 
L 214.323165 150.132339 
L 214.648145 155.962377 
L 214.973124 153.638572 
L 215.298104 155.193832 
L 215.623084 153.522146 
L 215.948063 156.334536 
L 216.273043 161.328058 
L 216.598022 173.113309 
L 217.247981 154.303478 
L 217.572961 157.952383 
L 217.89794 151.713845 
L 218.22292 162.254081 
L 218.547899 156.481246 
L 218.872879 157.117886 
L 219.197858 143.048536 
L 219.522838 149.400135 
L 219.847817 146.253947 
L 220.172797 153.690392 
L 220.497776 157.644831 
L 220.822756 165.972303 
L 221.147735 164.859192 
L 221.472715 153.032889 
L 221.797695 148.449212 
L 222.122674 154.732167 
L 222.447654 163.674071 
L 222.772633 158.539223 
L 223.097613 161.792415 
L 223.422592 151.159309 
L 223.747572 150.711103 
L 224.072551 151.167384 
L 224.397531 154.702556 
L 224.72251 165.396904 
L 225.04749 164.456076 
L 225.372469 160.729105 
L 225.697449 164.848424 
L 226.022428 155.748369 
L 226.347408 152.914444 
L 226.672387 161.196827 
L 226.997367 158.122648 
L 227.322346 156.242337 
L 227.647326 166.787283 
L 227.972305 164.964177 
L 228.297285 167.435365 
L 228.622265 156.221475 
L 228.947244 156.462402 
L 229.272224 158.16168 
L 229.597203 153.538971 
L 229.922183 166.652014 
L 230.247162 162.859764 
L 230.572142 153.004624 
L 230.897121 165.458818 
L 231.222101 150.391437 
L 231.54708 160.277534 
L 231.87206 166.529532 
L 232.197039 155.277282 
L 232.522019 150.624961 
L 232.846998 159.62878 
L 233.171978 156.648818 
L 233.821937 170.470511 
L 234.146916 172.494166 
L 234.471896 161.097225 
L 234.796876 161.466019 
L 235.121855 167.550444 
L 235.446835 161.181348 
L 235.771814 160.519807 
L 236.096794 154.015442 
L 236.746753 161.714349 
L 237.071732 164.472227 
L 237.396712 161.274893 
L 237.721691 166.247552 
L 238.046671 162.534714 
L 238.37165 150.776382 
L 238.69663 153.274489 
L 239.021609 161.259414 
L 239.346589 176.33016 
L 239.996548 149.081142 
L 240.321527 152.413073 
L 240.646507 158.136107 
L 240.971486 155.083463 
L 241.296466 169.716772 
L 241.621446 152.977032 
L 241.946425 158.647573 
L 242.271405 153.829026 
L 242.921364 159.179228 
L 243.246343 154.103602 
L 243.571323 157.961805 
L 243.896302 168.829782 
L 244.221282 143.433482 
L 244.546261 161.603307 
L 244.871241 163.677436 
L 245.19622 164.529431 
L 245.5212 159.416791 
L 245.846179 150.379996 
L 246.171159 162.238602 
L 246.496138 160.70555 
L 246.821118 162.654504 
L 247.146097 155.000687 
L 247.471077 152.503926 
L 247.796057 144.233657 
L 248.121036 146.148962 
L 248.770995 154.718707 
L 249.095975 164.47963 
L 249.420954 158.73035 
L 249.745934 161.313925 
L 250.070913 161.530625 
L 250.395893 157.974592 
L 250.720872 158.986756 
L 251.045852 142.106362 
L 251.370831 154.19782 
L 251.695811 156.18648 
L 252.02079 146.08974 
L 252.34577 159.688675 
L 252.670749 156.164945 
L 252.995729 146.616684 
L 253.320708 154.658139 
L 253.645688 167.862708 
L 253.970667 158.527782 
L 254.295647 157.25181 
L 254.620627 147.994277 
L 254.945606 151.916413 
L 255.270586 162.596628 
L 255.595565 154.826384 
L 255.920545 163.526015 
L 256.245524 154.642661 
L 256.570504 153.905746 
L 256.895483 152.437973 
L 257.220463 147.082387 
L 257.545442 166.69845 
L 257.870422 165.888853 
L 258.195401 169.425371 
L 258.84536 162.340222 
L 259.17034 158.086307 
L 259.495319 169.633995 
L 259.820299 170.534444 
L 260.470258 149.924388 
L 260.795238 157.031072 
L 261.120217 147.19141 
L 261.445197 145.926205 
L 261.770176 156.510184 
L 262.095156 144.590337 
L 262.420135 142.75579 
L 262.745115 154.539694 
L 263.070094 153.479749 
L 263.395074 155.346599 
L 263.720053 162.578458 
L 264.045033 157.61522 
L 264.370012 161.188078 
L 264.694992 158.313101 
L 265.019971 166.138529 
L 265.66993 152.513347 
L 265.99491 161.828083 
L 266.319889 162.973498 
L 266.644869 169.695909 
L 266.969848 166.186311 
L 267.619808 150.61554 
L 267.944787 157.101735 
L 268.269767 155.439471 
L 268.919726 158.503555 
L 269.244705 161.020506 
L 269.569685 158.216192 
L 269.894664 164.227262 
L 270.219644 158.406646 
L 270.544623 147.733833 
L 270.869603 161.799818 
L 271.519562 170.014902 
L 271.844541 159.638202 
L 272.169521 166.49992 
L 272.4945 163.311334 
L 272.81948 162.446553 
L 273.469439 158.578256 
L 273.794419 162.730551 
L 274.119398 154.150711 
L 274.769357 173.167147 
L 275.094337 160.229752 
L 275.419316 162.405501 
L 275.744296 167.641297 
L 276.069275 158.68526 
L 276.394255 156.572771 
L 276.719234 150.211751 
L 277.044214 153.669529 
L 277.369193 152.128402 
L 278.019152 172.284869 
L 278.344132 169.710042 
L 278.669111 158.714871 
L 278.994091 158.311082 
L 279.31907 151.201034 
L 279.64405 158.434238 
L 279.969029 155.825762 
L 280.294009 159.9222 
L 280.618989 153.224689 
L 280.943968 156.964446 
L 281.268948 157.017612 
L 281.593927 162.887356 
L 281.918907 154.049764 
L 282.243886 168.158147 
L 282.568866 152.224638 
L 282.893845 151.229972 
L 283.543804 167.582075 
L 283.868784 168.235539 
L 284.193763 172.813159 
L 284.518743 174.909496 
L 284.843722 162.388677 
L 285.168702 164.067765 
L 285.493681 160.315221 
L 285.818661 165.038205 
L 286.14364 159.675216 
L 286.46862 171.512286 
L 286.7936 159.229702 
L 287.443559 169.321059 
L 287.768538 170.791523 
L 288.093518 164.394834 
L 288.418497 171.901942 
L 288.743477 164.088628 
L 289.068456 174.587811 
L 289.393436 167.920584 
L 289.718415 166.293315 
L 290.043395 174.464656 
L 291.343313 150.957414 
L 291.993272 160.274169 
L 292.318251 167.64197 
L 292.643231 170.491373 
L 292.96821 160.016417 
L 293.29319 157.841341 
L 293.61817 154.460283 
L 293.943149 168.395709 
L 294.268129 173.048703 
L 294.593108 173.928289 
L 295.243067 159.638875 
L 295.568047 174.762786 
L 296.218006 157.169706 
L 296.542985 170.958422 
L 297.192944 157.479277 
L 297.842903 163.050891 
L 298.167883 155.460333 
L 298.492862 158.776112 
L 298.817842 157.212104 
L 299.142821 161.805202 
L 299.467801 161.741942 
L 299.792781 153.158064 
L 300.11776 167.238854 
L 300.44274 159.670505 
L 300.767719 165.057048 
L 301.092699 145.064116 
L 301.417678 158.717563 
L 301.742658 153.773842 
L 302.067637 153.749614 
L 302.392617 164.151215 
L 302.717596 163.78444 
L 303.042576 171.700048 
L 303.367555 173.996934 
L 304.017514 171.069464 
L 304.342494 162.083143 
L 304.667473 172.848154 
L 304.992453 166.873425 
L 305.317432 173.281554 
L 305.642412 163.145781 
L 305.967391 164.688254 
L 306.292371 164.643165 
L 306.617351 164.325517 
L 306.94233 158.683241 
L 307.26731 165.538903 
L 307.592289 154.664196 
L 307.917269 162.01921 
L 308.242248 164.299944 
L 308.567228 170.722879 
L 308.892207 167.681676 
L 309.217187 158.852159 
L 309.542166 155.28805 
L 309.867146 158.19533 
L 310.192125 159.936332 
L 310.517105 158.228306 
L 310.842084 165.441994 
L 311.167064 169.95568 
L 311.492043 163.783094 
L 311.817023 162.471454 
L 312.142002 159.877783 
L 312.466982 150.877329 
L 312.791962 157.683191 
L 313.116941 151.55906 
L 313.441921 159.266716 
L 313.7669 170.541847 
L 314.416859 153.53426 
L 314.741839 152.687649 
L 315.066818 160.264074 
L 315.391798 161.214997 
L 315.716777 168.504732 
L 316.041757 159.368336 
L 316.366736 163.170008 
L 316.691716 147.049411 
L 317.016695 157.456396 
L 317.341675 151.33563 
L 317.666654 159.126063 
L 317.991634 156.557966 
L 318.641593 153.651359 
L 318.966572 150.960779 
L 319.291552 172.158348 
L 319.616532 155.65146 
L 319.941511 155.563299 
L 320.266491 162.724495 
L 320.59147 167.228759 
L 320.91645 163.966818 
L 321.241429 155.89306 
L 321.566409 167.810215 
L 321.891388 173.412786 
L 322.541347 151.92718 
L 322.866327 153.548393 
L 323.516286 158.565469 
L 323.841265 172.81787 
L 324.166245 166.904382 
L 324.491224 170.366199 
L 324.816204 155.216041 
L 325.141183 164.435213 
L 325.466163 160.280226 
L 325.791143 158.817164 
L 326.116122 159.78222 
L 326.441102 153.786628 
L 326.766081 152.390192 
L 327.091061 170.192569 
L 327.41604 158.944358 
L 327.74102 169.250395 
L 328.390979 149.67202 
L 328.715958 156.090244 
L 329.040938 156.564023 
L 329.365917 156.775339 
L 329.690897 163.780402 
L 330.015876 167.56525 
L 330.340856 160.43232 
L 330.665835 150.365864 
L 330.990815 166.850544 
L 331.315794 154.821001 
L 331.640774 165.541595 
L 331.965753 164.56981 
L 332.290733 158.290893 
L 332.615713 174.29641 
L 332.940692 157.526386 
L 333.265672 160.863028 
L 333.590651 152.453452 
L 334.24061 165.580628 
L 334.56559 164.352437 
L 334.890569 150.929149 
L 335.540528 167.178286 
L 335.865508 165.099446 
L 336.190487 161.758093 
L 336.515467 153.316214 
L 336.840446 149.749413 
L 337.165426 159.651661 
L 337.815385 146.319226 
L 338.140364 160.169184 
L 338.465344 157.031072 
L 338.790324 159.449094 
L 339.115303 149.329472 
L 339.765262 174.595887 
L 340.090242 159.019059 
L 340.415221 165.02811 
L 340.740201 163.735313 
L 341.06518 161.90413 
L 341.39016 159.136158 
L 341.715139 159.458516 
L 342.040119 169.104359 
L 342.365098 162.593263 
L 342.690078 162.022575 
L 343.015057 159.119333 
L 343.340037 167.172229 
L 343.665016 168.234867 
L 343.989996 166.319561 
L 344.314975 155.400438 
L 344.639955 155.573394 
L 344.964934 165.807422 
L 345.289914 154.143981 
L 345.614894 166.675569 
L 345.939873 151.46888 
L 346.264853 153.655397 
L 346.589832 158.436257 
L 346.914812 166.534915 
L 347.239791 158.481347 
L 347.564771 153.186329 
L 347.88975 161.26749 
L 348.21473 161.111358 
L 348.539709 159.142887 
L 348.864689 165.740124 
L 349.189668 164.82958 
L 349.514648 153.141239 
L 349.839627 151.935256 
L 350.164607 158.237727 
L 350.489586 148.180693 
L 350.814566 151.004523 
L 351.139545 152.448068 
L 351.464525 143.122564 
L 351.789505 154.936753 
L 352.114484 155.469082 
L 352.439464 156.654875 
L 352.764443 158.460484 
L 353.089423 154.625836 
L 353.414402 157.67175 
L 354.064361 143.012195 
L 354.389341 157.763948 
L 354.71432 159.211531 
L 355.364279 139.273784 
L 355.689259 153.209883 
L 356.014238 144.901254 
L 356.339218 149.582513 
L 356.664197 144.056663 
L 356.989177 156.578155 
L 357.314156 159.922873 
L 357.639136 155.979875 
L 357.964115 144.82117 
L 358.289095 158.037179 
L 358.614075 155.862103 
L 359.264034 158.15697 
L 360.238972 151.812774 
L 360.563952 161.186732 
L 360.888931 143.584903 
L 361.213911 156.809661 
L 361.53889 161.941144 
L 361.86387 154.703229 
L 362.188849 164.074495 
L 362.838808 150.987698 
L 363.163788 157.628006 
L 363.488767 149.044801 
L 363.813747 164.050268 
L 364.138726 162.128906 
L 364.463706 172.358897 
L 364.788686 171.348752 
L 365.438645 148.80522 
L 366.413583 157.541192 
L 366.738563 156.067362 
L 367.063542 153.792012 
L 367.388522 153.57935 
L 367.713501 156.882343 
L 368.038481 158.063425 
L 368.36346 162.348971 
L 368.68844 164.845059 
L 369.338399 157.063375 
L 369.663378 145.29764 
L 369.988358 151.914394 
L 370.313337 153.965641 
L 370.638317 153.384185 
L 370.963296 159.356222 
L 371.288276 151.526084 
L 371.613256 162.457994 
L 371.938235 148.612074 
L 372.263215 158.333291 
L 372.588194 149.18007 
L 372.913174 148.742632 
L 373.238153 154.257042 
L 373.563133 165.287881 
L 374.213092 151.314094 
L 374.863051 159.212877 
L 375.18803 158.927533 
L 375.51301 148.566311 
L 375.837989 150.885405 
L 376.162969 143.134005 
L 376.487948 152.894255 
L 376.812928 151.153925 
L 377.137907 155.09625 
L 377.462887 145.013642 
L 378.112846 155.853354 
L 378.437826 141.503371 
L 378.762805 145.887845 
L 379.087785 146.954521 
L 379.412764 151.764319 
L 379.737744 144.854819 
L 380.062723 145.473962 
L 380.387703 152.981069 
L 380.712682 157.837303 
L 381.037662 152.627754 
L 381.362641 155.438125 
L 381.687621 152.851857 
L 382.0126 161.997675 
L 382.33758 158.448371 
L 382.662559 164.349072 
L 382.987539 160.064199 
L 383.312518 142.67907 
L 383.637498 156.809661 
L 383.962477 165.899621 
L 384.287457 165.131749 
L 384.612437 158.549318 
L 384.937416 164.629705 
L 385.587375 158.164372 
L 385.912355 159.225664 
L 386.562314 147.404745 
L 386.887293 150.120898 
L 387.212273 159.522449 
L 387.212273 159.522449 
" style="fill:none;stroke:#1f77b4;stroke-linecap:square;stroke-width:1.5;"/>
   </g>
   <g id="line2d_16">
    <path clip-path="url(#p6ad518ade6)" d="M 62.557727 210.069411 
L 62.882707 250.313701 
L 63.207686 251.79426 
L 63.532666 251.79426 
L 63.857645 253.274819 
L 66.457482 253.274819 
L 66.782461 253.813204 
L 82.056499 253.813204 
L 82.381478 254.216993 
L 83.031437 254.486186 
L 83.356417 254.486186 
L 83.681396 254.755378 
L 84.006376 255.697552 
L 86.931192 255.697552 
L 87.256171 256.370534 
L 88.23111 256.370534 
L 88.556089 256.639726 
L 104.805066 256.639726 
L 105.130045 256.774323 
L 108.70482 256.774323 
L 109.354779 257.5819 
L 110.329717 257.5819 
L 110.654697 257.985689 
L 111.954615 257.985689 
L 112.279595 258.254882 
L 113.254533 258.254882 
L 113.579513 258.793267 
L 116.504328 258.793267 
L 117.154287 259.062459 
L 120.729062 259.062459 
L 121.054042 259.331652 
L 132.753305 259.331652 
L 133.078284 259.600845 
L 195.799333 259.600845 
L 196.124312 259.735441 
L 211.07337 259.735441 
L 211.39835 259.870037 
L 224.397531 259.870037 
L 224.72251 260.677615 
L 230.572142 260.677615 
L 230.897121 260.812211 
L 269.569685 260.812211 
L 269.894664 260.946807 
L 270.869603 260.946807 
L 271.194582 261.081404 
L 272.81948 261.081404 
L 273.144459 261.216 
L 387.212273 261.216 
L 387.212273 261.216 
" style="fill:none;stroke:#ff7f0e;stroke-linecap:square;stroke-width:1.5;"/>
   </g>
   <g id="patch_3">
    <path d="M 46.325 273.312 
L 46.325 7.2 
" style="fill:none;stroke:#000000;stroke-linecap:square;stroke-linejoin:miter;stroke-width:0.8;"/>
   </g>
   <g id="patch_4">
    <path d="M 403.445 273.312 
L 403.445 7.2 
" style="fill:none;stroke:#000000;stroke-linecap:square;stroke-linejoin:miter;stroke-width:0.8;"/>
   </g>
   <g id="patch_5">
    <path d="M 46.325 273.312 
L 403.445 273.312 
" style="fill:none;stroke:#000000;stroke-linecap:square;stroke-linejoin:miter;stroke-width:0.8;"/>
   </g>
   <g id="patch_6">
    <path d="M 46.325 7.2 
L 403.445 7.2 
" style="fill:none;stroke:#000000;stroke-linecap:square;stroke-linejoin:miter;stroke-width:0.8;"/>
   </g>
   <g id="legend_1">
    <g id="patch_7">
     <path d="M 254.445 43.871875 
L 396.445 43.871875 
Q 398.445 43.871875 398.445 41.871875 
L 398.445 14.2 
Q 398.445 12.2 396.445 12.2 
L 254.445 12.2 
Q 252.445 12.2 252.445 14.2 
L 252.445 41.871875 
Q 252.445 43.871875 254.445 43.871875 
z
" style="fill:#ffffff;opacity:0.8;stroke:#cccccc;stroke-linejoin:miter;"/>
    </g>
    <g id="line2d_17">
     <path d="M 256.445 20.785937 
L 276.445 20.785937 
" style="fill:none;stroke:#1f77b4;stroke-linecap:square;stroke-width:1.5;"/>
    </g>
    <g id="line2d_18"/>
    <g id="text_17">
     <!-- 种群个体平均目标函数值 -->
     <g transform="translate(284.445 24.285937)scale(0.1 -0.1)">
      <defs>
       <path d="M 66.015625 62.5 
Q 66.015625 77.734375 65.625 82.421875 
L 73.828125 82.421875 
Q 73.4375 78.125 73.4375 62.5 
L 93.75 62.5 
Q 93.359375 58.203125 93.359375 50.78125 
L 93.359375 24.21875 
Q 93.359375 19.921875 93.75 14.453125 
L 85.9375 14.453125 
L 85.9375 22.265625 
L 73.4375 22.265625 
L 73.4375 5.859375 
Q 73.4375 -4.296875 73.828125 -10.9375 
L 65.625 -10.9375 
Q 66.015625 -4.296875 66.015625 5.859375 
L 66.015625 22.265625 
L 53.515625 22.265625 
L 53.515625 12.890625 
L 45.703125 12.890625 
Q 46.09375 17.578125 46.09375 23.4375 
L 46.09375 50 
Q 46.09375 58.203125 45.703125 62.5 
L 66.015625 62.5 
z
M 5.46875 50.78125 
Q 11.328125 50.390625 19.140625 50.390625 
L 22.265625 50.390625 
L 22.265625 67.578125 
Q 18.359375 66.40625 8.984375 64.453125 
Q 7.421875 67.96875 5.46875 71.484375 
Q 14.0625 71.875 22.0625 74.015625 
Q 30.078125 76.171875 36.71875 79.6875 
Q 39.0625 76.5625 42.578125 72.265625 
Q 38.671875 71.875 35.9375 71.09375 
Q 33.203125 70.3125 29.6875 69.53125 
L 29.6875 50.390625 
Q 34.765625 50.390625 42.1875 50.78125 
L 42.1875 43.75 
Q 34.765625 44.140625 29.6875 44.140625 
L 29.6875 3.515625 
Q 29.6875 -1.953125 30.078125 -10.15625 
L 21.875 -10.15625 
Q 22.265625 -1.953125 22.265625 3.515625 
L 22.265625 29.296875 
Q 19.140625 21.484375 16.59375 16.796875 
Q 14.0625 12.109375 9.765625 5.46875 
Q 6.640625 9.765625 3.90625 13.28125 
Q 9.375 19.140625 13.859375 26.953125 
Q 18.359375 34.765625 20.3125 44.140625 
L 14.453125 44.140625 
Q 8.984375 44.140625 5.46875 43.75 
z
M 66.015625 28.515625 
L 66.015625 56.25 
L 53.515625 56.25 
L 53.515625 28.515625 
z
M 85.9375 28.515625 
L 85.9375 56.25 
L 73.4375 56.25 
L 73.4375 28.515625 
z
M 37.109375 38.671875 
Q 38.28125 35.9375 40.234375 33.203125 
Q 42.1875 30.46875 44.53125 25.390625 
Q 41.015625 23.828125 37.890625 21.484375 
Q 35.9375 25.78125 34.5625 28.703125 
Q 33.203125 31.640625 30.859375 34.765625 
Q 33.203125 36.328125 37.109375 38.671875 
z
" id="SimHei-31181"/>
       <path d="M 39.0625 -6.640625 
L 39.0625 0.390625 
L 23.046875 0.390625 
L 23.046875 -9.375 
L 15.625 -9.375 
Q 16.015625 -3.515625 16.015625 21.875 
Q 12.890625 17.1875 9.375 13.28125 
Q 7.03125 16.40625 3.125 17.578125 
Q 7.03125 21.484375 10.9375 26.953125 
Q 14.84375 32.421875 16.40625 37.109375 
Q 13.28125 37.109375 8.59375 36.71875 
L 8.59375 43.359375 
Q 14.0625 42.96875 17.578125 42.96875 
Q 18.75 48.828125 18.75 53.125 
Q 10.546875 53.125 5.859375 52.734375 
L 5.859375 59.375 
Q 10.9375 58.984375 18.75 58.984375 
L 18.75 69.921875 
Q 16.40625 69.921875 10.15625 69.53125 
L 10.15625 76.5625 
Q 16.015625 76.171875 19.921875 76.171875 
L 46.09375 76.171875 
Q 45.703125 70.3125 45.703125 58.984375 
Q 48.046875 58.984375 51.171875 59.375 
L 51.171875 52.734375 
Q 48.046875 53.125 45.703125 53.125 
Q 45.703125 41.796875 46.09375 37.109375 
L 23.4375 37.109375 
Q 21.09375 30.078125 19.140625 27.34375 
L 46.484375 27.34375 
Q 46.09375 22.265625 46.09375 10.546875 
Q 46.09375 -1.171875 46.484375 -6.640625 
z
M 76.171875 19.921875 
Q 91.015625 19.921875 94.921875 20.3125 
L 94.921875 13.671875 
Q 91.015625 14.0625 76.171875 14.0625 
L 76.171875 3.515625 
Q 76.171875 -3.515625 76.5625 -10.9375 
L 68.75 -10.9375 
Q 69.140625 -3.515625 69.140625 3.515625 
L 69.140625 14.0625 
Q 55.46875 14.0625 50 13.671875 
L 50 20.3125 
Q 55.46875 19.921875 69.140625 19.921875 
L 69.140625 35.15625 
Q 57.421875 35.15625 53.125 34.765625 
L 53.125 41.40625 
Q 57.8125 41.015625 69.140625 41.015625 
L 69.140625 54.6875 
Q 58.984375 54.6875 52.734375 54.296875 
L 52.734375 60.9375 
Q 58.984375 60.546875 74.21875 60.546875 
Q 78.515625 69.921875 81.640625 80.859375 
Q 86.328125 78.515625 90.625 77.734375 
Q 89.0625 75.390625 86.71875 71.28125 
Q 84.375 67.1875 81.25 60.546875 
Q 87.890625 60.546875 92.96875 60.9375 
L 92.96875 54.296875 
Q 88.28125 54.6875 76.171875 54.6875 
L 76.171875 41.015625 
L 81.640625 41.015625 
L 91.796875 41.40625 
L 91.796875 34.765625 
Q 86.328125 35.15625 76.171875 35.15625 
z
M 39.0625 6.25 
L 39.0625 21.09375 
L 23.046875 21.09375 
L 23.046875 6.25 
z
M 38.671875 58.984375 
L 38.671875 69.921875 
L 25.78125 69.921875 
L 25.78125 58.984375 
z
M 38.671875 42.96875 
L 38.671875 53.125 
L 25.78125 53.125 
Q 25.390625 48.828125 24.609375 42.96875 
z
M 62.890625 65.234375 
Q 59.375 71.875 55.859375 76.953125 
Q 58.59375 78.125 61.328125 80.46875 
Q 64.84375 76.5625 69.140625 69.53125 
Q 65.234375 67.1875 62.890625 65.234375 
z
" id="SimHei-32676"/>
       <path d="M 53.515625 75.390625 
Q 69.921875 51.171875 96.09375 43.359375 
Q 92.1875 38.671875 90.234375 34.375 
Q 64.84375 45.3125 49.21875 69.140625 
Q 34.765625 46.09375 10.546875 33.203125 
Q 8.59375 36.71875 3.90625 40.625 
Q 22.65625 48.4375 33 60.546875 
Q 43.359375 72.65625 46.875 82.421875 
Q 51.5625 80.46875 56.25 78.90625 
Q 54.6875 76.953125 53.515625 75.390625 
z
M 45.703125 36.71875 
Q 45.703125 42.96875 44.921875 52.734375 
L 53.90625 52.734375 
Q 53.515625 46.09375 53.515625 36.328125 
L 53.515625 8.59375 
Q 53.515625 -0.390625 53.90625 -9.765625 
L 45.3125 -9.765625 
Q 45.703125 0 45.703125 8.203125 
z
" id="SimHei-20010"/>
       <path d="M 57.03125 60.15625 
Q 57.03125 74.21875 56.640625 80.078125 
L 64.453125 80.078125 
Q 64.0625 74.609375 64.0625 60.15625 
L 81.25 60.15625 
Q 89.0625 60.15625 92.578125 60.546875 
L 92.578125 53.515625 
Q 89.0625 53.90625 81.25 53.90625 
L 70.703125 53.90625 
Q 76.953125 28.90625 96.875 18.75 
Q 92.578125 16.40625 90.234375 12.109375 
Q 69.140625 28.125 64.0625 53.515625 
L 64.0625 16.015625 
Q 75.390625 16.015625 78.90625 16.40625 
L 78.90625 9.375 
Q 75.390625 9.765625 64.0625 9.765625 
Q 64.0625 1.171875 64.453125 -8.984375 
L 56.640625 -8.984375 
Q 57.03125 1.5625 57.03125 9.765625 
Q 50 9.765625 42.1875 9.375 
L 42.1875 16.40625 
Q 50 16.015625 57.03125 16.015625 
L 57.03125 53.90625 
Q 52.734375 28.125 31.25 10.15625 
Q 28.90625 13.671875 24.21875 16.015625 
Q 44.53125 29.296875 50 53.90625 
L 41.796875 53.90625 
Q 35.546875 53.90625 30.859375 53.515625 
L 30.859375 60.546875 
Q 35.546875 60.15625 41.796875 60.15625 
z
M 31.25 76.5625 
Q 28.515625 73.046875 23.828125 58.984375 
L 23.828125 8.984375 
Q 23.828125 -3.125 24.21875 -8.59375 
L 16.40625 -8.59375 
Q 16.796875 -3.515625 16.796875 8.59375 
L 16.796875 45.3125 
Q 14.84375 41.015625 8.984375 32.03125 
Q 7.03125 35.546875 3.515625 37.890625 
Q 8.203125 42.578125 14.453125 56.4375 
Q 20.703125 70.3125 22.265625 80.078125 
Q 26.5625 78.125 31.25 76.5625 
z
" id="SimHei-20307"/>
       <path d="M 70.703125 75.390625 
Q 76.5625 75.390625 85.15625 75.78125 
L 85.15625 68.359375 
Q 76.953125 68.75 70.703125 68.75 
L 54.296875 68.75 
L 54.296875 31.640625 
L 78.125 31.640625 
Q 86.71875 31.640625 94.140625 32.03125 
L 94.140625 24.609375 
Q 86.71875 25 78.125 25 
L 54.296875 25 
L 54.296875 7.03125 
Q 54.296875 -1.5625 54.6875 -9.375 
L 45.703125 -9.375 
Q 46.09375 -1.5625 46.09375 7.03125 
L 46.09375 25 
L 17.578125 25 
Q 12.109375 25 5.859375 24.609375 
L 5.859375 32.03125 
Q 12.109375 31.640625 18.359375 31.640625 
L 46.09375 31.640625 
L 46.09375 68.75 
L 27.734375 68.75 
Q 21.875 68.75 13.671875 68.359375 
L 13.671875 75.78125 
Q 21.875 75.390625 27.34375 75.390625 
z
M 61.328125 40.625 
Q 70.3125 51.5625 76.5625 64.453125 
Q 80.46875 61.71875 84.375 59.765625 
Q 74.609375 44.53125 67.96875 35.9375 
Q 64.84375 38.671875 61.328125 40.625 
z
M 30.859375 36.71875 
Q 25 48.4375 16.40625 58.203125 
Q 19.53125 60.546875 22.65625 63.28125 
Q 32.421875 51.5625 38.28125 42.578125 
Q 33.59375 39.0625 30.859375 36.71875 
z
" id="SimHei-24179"/>
       <path d="M 90.234375 4.296875 
Q 90.234375 -5.078125 83.78125 -7.03125 
Q 77.34375 -8.984375 69.140625 -9.375 
Q 68.359375 -4.296875 66.40625 0.390625 
Q 77.34375 -0.390625 80.078125 0.96875 
Q 82.8125 2.34375 82.8125 7.8125 
L 83.984375 57.8125 
L 55.46875 57.8125 
Q 53.515625 52.734375 50.96875 47.453125 
Q 48.4375 42.1875 45.703125 37.5 
Q 41.796875 39.84375 38.671875 41.015625 
Q 49.21875 56.640625 54.6875 81.25 
Q 59.375 79.6875 63.671875 78.515625 
Q 62.109375 76.171875 60.546875 72.65625 
Q 58.984375 69.140625 57.421875 64.453125 
L 92.1875 64.453125 
L 90.234375 4.296875 
z
M 19.53125 56.640625 
L 19.53125 68.359375 
Q 19.53125 74.609375 19.140625 79.6875 
L 27.734375 79.6875 
Q 27.34375 73.828125 27.34375 68.359375 
L 27.34375 56.640625 
L 29.6875 56.640625 
Q 34.375 56.640625 39.453125 57.03125 
L 39.453125 49.21875 
Q 34.375 49.609375 29.6875 49.609375 
L 27.34375 49.609375 
L 27.34375 17.1875 
L 39.0625 21.484375 
Q 38.671875 17.578125 39.453125 14.0625 
Q 19.140625 7.421875 15.03125 5.65625 
Q 10.9375 3.90625 7.421875 2.34375 
Q 5.859375 7.421875 3.90625 11.71875 
Q 8.984375 12.5 12.5 13.28125 
Q 16.015625 14.0625 19.53125 15.234375 
L 19.53125 49.609375 
L 17.578125 49.609375 
Q 13.28125 49.609375 6.25 49.21875 
L 6.25 57.03125 
Q 13.28125 56.640625 17.1875 56.640625 
z
M 77.34375 25.390625 
Q 73.046875 22.265625 64.640625 16.40625 
Q 56.25 10.546875 49.609375 4.6875 
Q 46.875 8.984375 44.53125 12.109375 
Q 52.34375 16.40625 58.78125 20.703125 
Q 65.234375 25 74.609375 32.421875 
Q 75.390625 28.90625 77.34375 25.390625 
z
M 58.984375 49.21875 
Q 64.453125 43.75 69.921875 35.9375 
Q 66.40625 33.203125 64.0625 30.859375 
Q 60.9375 36.328125 53.90625 44.140625 
Q 56.25 46.875 58.984375 49.21875 
z
" id="SimHei-22343"/>
       <path d="M 83.984375 76.5625 
Q 83.59375 65.234375 83.59375 55.078125 
L 83.59375 9.375 
Q 83.59375 3.515625 83.984375 -8.59375 
L 75.390625 -8.59375 
L 75.390625 -1.5625 
L 24.609375 -1.5625 
L 24.609375 -8.203125 
L 16.40625 -8.203125 
Q 16.796875 2.34375 16.796875 8.59375 
L 16.796875 55.078125 
Q 16.796875 67.96875 16.40625 76.5625 
L 83.984375 76.5625 
z
M 75.390625 4.6875 
L 75.390625 23.046875 
L 24.609375 23.046875 
L 24.609375 4.6875 
z
M 75.390625 29.296875 
L 75.390625 46.875 
L 24.609375 46.875 
L 24.609375 29.296875 
z
M 75.390625 53.125 
L 75.390625 70.3125 
L 24.609375 70.3125 
L 24.609375 53.125 
z
" id="SimHei-30446"/>
       <path d="M 19.921875 68.75 
Q 19.921875 75 19.53125 80.859375 
L 27.34375 80.859375 
Q 26.953125 75.390625 26.953125 68.75 
L 26.953125 59.375 
Q 33.203125 59.375 40.234375 59.765625 
L 40.234375 52.34375 
Q 33.203125 52.734375 26.953125 52.734375 
L 26.953125 39.453125 
Q 29.6875 41.40625 32.421875 43.75 
Q 37.5 35.546875 41.40625 27.734375 
Q 37.109375 25.78125 33.984375 23.4375 
Q 31.640625 31.25 26.953125 37.890625 
L 26.953125 7.421875 
Q 26.953125 -0.78125 27.34375 -8.984375 
L 19.53125 -8.984375 
Q 19.921875 -0.390625 19.921875 7.421875 
L 19.921875 32.8125 
Q 16.015625 21.875 7.8125 11.71875 
Q 5.46875 14.84375 1.953125 17.578125 
Q 8.59375 24.21875 12.6875 34.171875 
Q 16.796875 44.140625 17.96875 52.734375 
Q 10.546875 52.734375 5.078125 51.953125 
L 5.078125 59.765625 
Q 12.5 59.375 19.921875 59.375 
z
M 80.859375 48.828125 
Q 88.671875 48.828125 94.53125 49.21875 
L 94.53125 41.796875 
Q 88.671875 42.1875 82.421875 42.1875 
L 70.3125 42.1875 
L 70.3125 2.734375 
Q 70.3125 -3.515625 66.796875 -5.46875 
Q 63.28125 -7.421875 54.296875 -8.59375 
Q 53.515625 -3.90625 51.171875 0.390625 
Q 58.984375 0.390625 60.9375 0.96875 
Q 62.890625 1.5625 62.890625 5.46875 
L 62.890625 42.1875 
L 53.125 42.1875 
Q 43.359375 42.1875 39.0625 41.40625 
L 39.0625 49.21875 
Q 44.140625 48.828125 53.125 48.828125 
z
M 76.5625 74.609375 
Q 84.765625 74.609375 89.84375 75 
L 89.84375 67.1875 
Q 82.421875 67.96875 74.21875 67.96875 
L 55.078125 67.96875 
Q 48.828125 67.96875 42.96875 67.1875 
L 42.96875 75 
Q 48.4375 74.609375 55.078125 74.609375 
z
M 82.421875 31.640625 
Q 91.015625 18.359375 96.875 7.8125 
Q 92.578125 5.859375 88.28125 3.125 
Q 83.984375 14.453125 75.390625 26.953125 
Q 79.296875 28.90625 82.421875 31.640625 
z
M 56.25 27.734375 
Q 54.6875 25.390625 50.390625 15.234375 
Q 46.09375 5.078125 43.75 0.78125 
Q 40.234375 2.734375 35.9375 4.296875 
Q 41.015625 12.109375 43.546875 18.546875 
Q 46.09375 25 47.65625 31.25 
Q 51.953125 29.296875 56.25 27.734375 
z
" id="SimHei-26631"/>
       <path d="M 18.75 3.125 
L 81.25 3.125 
L 81.25 34.765625 
Q 81.25 40.625 80.46875 48.046875 
L 89.0625 48.046875 
Q 88.671875 39.0625 88.671875 34.765625 
L 88.671875 0.78125 
Q 88.671875 -4.296875 89.0625 -9.765625 
L 81.25 -9.765625 
L 81.25 -3.515625 
L 10.9375 -3.515625 
Q 11.328125 0.78125 11.328125 21.484375 
Q 11.328125 42.1875 10.9375 48.046875 
L 19.140625 48.046875 
Q 18.75 43.75 18.75 38.671875 
z
M 85.15625 76.953125 
L 85.15625 69.53125 
Q 79.296875 67.578125 69.921875 63.078125 
Q 60.546875 58.59375 54.296875 55.859375 
L 54.296875 17.1875 
Q 54.296875 10.9375 50 9.171875 
Q 45.703125 7.421875 39.453125 6.25 
Q 38.671875 10.546875 36.71875 14.84375 
Q 42.96875 14.84375 45.109375 15.625 
Q 47.265625 16.40625 47.265625 21.484375 
L 47.265625 48.046875 
Q 47.265625 55.46875 46.484375 60.15625 
Q 50.390625 61.328125 57.8125 64.453125 
Q 65.234375 67.578125 70.3125 70.3125 
L 30.46875 70.3125 
Q 22.265625 70.3125 16.015625 69.921875 
L 16.015625 77.34375 
Q 23.828125 76.953125 30.46875 76.953125 
z
M 70.3125 27.34375 
Q 73.4375 24.609375 78.125 19.921875 
Q 75.390625 17.578125 72.65625 14.0625 
Q 68.75 18.359375 65.625 21.484375 
Q 62.5 24.609375 56.25 30.078125 
Q 58.984375 32.8125 60.9375 35.546875 
z
M 42.1875 28.125 
Q 39.453125 26.171875 34.953125 23.234375 
Q 30.46875 20.3125 25 15.625 
Q 23.828125 18.359375 20.703125 22.265625 
Q 23.4375 23.4375 29.484375 27.140625 
Q 35.546875 30.859375 39.84375 34.765625 
Q 40.625 31.640625 42.1875 28.125 
z
M 77.734375 49.609375 
Q 75 48.4375 71.28125 45.5 
Q 67.578125 42.578125 62.5 38.671875 
Q 60.546875 42.1875 58.59375 44.53125 
Q 62.890625 47.65625 65.625 50 
Q 68.359375 52.34375 71.875 55.859375 
Q 74.609375 52.734375 77.734375 49.609375 
z
M 36.71875 39.84375 
Q 34.375 42.96875 31.25 45.890625 
Q 28.125 48.828125 23.046875 52.34375 
Q 25.78125 55.078125 27.34375 57.8125 
Q 31.640625 54.6875 41.40625 46.09375 
Q 38.671875 42.578125 36.71875 39.84375 
z
" id="SimHei-20989"/>
       <path d="M 70.703125 76.953125 
Q 69.921875 75 68.75 71.671875 
Q 67.578125 68.359375 65.234375 59.765625 
L 83.203125 59.765625 
Q 87.109375 59.765625 92.578125 60.15625 
L 92.578125 53.125 
Q 88.28125 53.515625 85.9375 53.515625 
Q 85.9375 47.265625 83.78125 33.78125 
Q 81.640625 20.3125 76.171875 10.546875 
Q 80.078125 5.859375 84.953125 2.140625 
Q 89.84375 -1.5625 94.140625 -3.125 
Q 89.453125 -6.640625 87.890625 -9.765625 
Q 83.203125 -7.03125 79.296875 -3.515625 
Q 75.390625 0 71.484375 5.078125 
Q 67.1875 0.390625 62.296875 -2.921875 
Q 57.421875 -6.25 50 -10.15625 
Q 48.046875 -6.640625 44.53125 -4.6875 
Q 50.390625 -2.34375 57.03125 1.953125 
Q 63.671875 6.25 67.1875 10.546875 
Q 64.453125 16.015625 61.90625 22.265625 
Q 59.375 28.515625 57.421875 38.671875 
Q 56.25 35.546875 53.515625 30.46875 
Q 50.78125 32.03125 46.875 33.59375 
Q 53.125 44.53125 57.03125 57.421875 
Q 60.9375 70.3125 62.109375 79.6875 
Q 66.796875 77.734375 70.703125 76.953125 
z
M 32.8125 35.15625 
Q 31.25 33.59375 29.296875 30.078125 
L 50.78125 30.078125 
Q 48.4375 20.3125 42.578125 10.546875 
Q 48.828125 8.203125 52.34375 6.25 
Q 50.390625 3.515625 48.828125 0.390625 
Q 45.3125 2.734375 38.28125 5.078125 
Q 30.46875 -3.515625 11.328125 -10.15625 
Q 9.375 -5.859375 6.25 -4.296875 
Q 24.609375 0 31.25 7.421875 
Q 20.3125 10.15625 13.28125 12.109375 
Q 15.625 15.625 19.53125 23.828125 
Q 15.625 23.828125 6.640625 23.4375 
L 6.640625 30.46875 
Q 14.0625 30.078125 21.875 30.078125 
Q 23.4375 33.59375 24.21875 37.890625 
Q 28.515625 36.328125 32.8125 35.15625 
z
M 27.734375 61.71875 
Q 27.734375 71.09375 27.34375 79.6875 
L 35.15625 79.6875 
Q 34.765625 71.484375 34.765625 61.71875 
Q 48.046875 61.71875 53.515625 62.109375 
L 53.515625 55.078125 
Q 48.046875 55.46875 34.765625 55.46875 
Q 34.765625 44.140625 35.15625 37.890625 
L 27.34375 37.890625 
Q 27.734375 43.359375 27.734375 51.5625 
Q 25.78125 48.4375 20.3125 43.546875 
Q 14.84375 38.671875 10.15625 35.9375 
Q 8.203125 39.453125 4.296875 41.015625 
Q 7.8125 42.1875 13.671875 46.484375 
Q 19.53125 50.78125 22.65625 55.46875 
Q 14.84375 55.46875 7.8125 55.078125 
L 7.8125 62.109375 
Q 14.453125 61.71875 27.734375 61.71875 
z
M 62.109375 49.609375 
Q 65.625 26.5625 71.875 17.578125 
Q 75.78125 26.5625 77.140625 35.734375 
Q 78.515625 44.921875 78.90625 53.515625 
L 63.671875 53.515625 
L 62.109375 49.609375 
z
M 22.65625 15.625 
Q 27.34375 14.453125 35.546875 12.5 
Q 38.671875 16.40625 41.40625 23.828125 
L 26.953125 23.828125 
Q 25 19.921875 22.65625 15.625 
z
M 51.953125 75.390625 
Q 50 72.265625 48.828125 69.53125 
Q 47.65625 66.796875 45.703125 62.890625 
Q 42.578125 64.453125 39.453125 65.234375 
Q 42.578125 70.3125 45.3125 78.125 
Q 49.21875 76.171875 51.953125 75.390625 
z
M 40.234375 52.734375 
Q 45.3125 47.65625 50 42.578125 
Q 47.65625 40.625 44.921875 37.890625 
Q 39.453125 44.53125 35.9375 48.4375 
Q 38.28125 50.390625 40.234375 52.734375 
z
M 14.453125 78.125 
Q 19.921875 72.65625 23.4375 67.1875 
L 17.578125 63.671875 
Q 14.84375 69.140625 9.375 73.828125 
Q 12.890625 76.171875 14.453125 78.125 
z
" id="SimHei-25968"/>
       <path d="M 57.421875 69.53125 
L 57.421875 79.6875 
Q 62.109375 79.296875 67.96875 78.90625 
Q 66.015625 76.171875 65.625 69.53125 
L 80.078125 69.53125 
Q 86.71875 69.53125 91.796875 69.921875 
L 91.796875 62.890625 
Q 86.328125 63.28125 80.078125 63.28125 
L 65.234375 63.28125 
L 64.453125 54.6875 
L 84.375 54.6875 
Q 83.984375 50 83.984375 42.1875 
L 83.984375 2.34375 
Q 91.796875 2.34375 95.3125 2.734375 
L 95.3125 -4.296875 
Q 90.234375 -3.90625 81.25 -3.90625 
L 44.53125 -3.90625 
Q 35.546875 -3.90625 29.6875 -4.296875 
L 29.6875 2.734375 
Q 33.203125 2.34375 40.625 2.34375 
L 40.625 42.1875 
Q 40.625 49.609375 40.234375 54.6875 
L 56.25 54.6875 
L 57.03125 63.28125 
L 50 63.28125 
Q 40.234375 63.28125 34.765625 62.890625 
L 34.765625 69.921875 
Q 39.84375 69.53125 50 69.53125 
z
M 34.765625 76.5625 
Q 31.640625 73.046875 25.78125 58.59375 
L 25.78125 7.03125 
Q 25.78125 -1.171875 26.171875 -8.59375 
L 17.96875 -8.59375 
Q 18.359375 -1.953125 18.359375 5.859375 
L 18.359375 46.09375 
Q 13.671875 38.28125 9.765625 33.59375 
Q 6.640625 37.890625 3.90625 40.234375 
Q 7.8125 44.140625 14.640625 55.265625 
Q 21.484375 66.40625 25.390625 80.46875 
Q 30.859375 77.734375 34.765625 76.5625 
z
M 76.953125 41.40625 
L 76.953125 49.21875 
L 48.046875 49.21875 
L 48.046875 41.40625 
z
M 76.953125 2.34375 
L 76.953125 9.765625 
L 48.046875 9.765625 
L 48.046875 2.34375 
z
M 76.953125 15.625 
L 76.953125 22.65625 
L 48.046875 22.65625 
L 48.046875 15.625 
z
M 76.953125 28.515625 
L 76.953125 35.546875 
L 48.046875 35.546875 
L 48.046875 28.515625 
z
" id="SimHei-20540"/>
      </defs>
      <use xlink:href="#SimHei-31181"/>
      <use x="100" xlink:href="#SimHei-32676"/>
      <use x="200" xlink:href="#SimHei-20010"/>
      <use x="300" xlink:href="#SimHei-20307"/>
      <use x="400" xlink:href="#SimHei-24179"/>
      <use x="500" xlink:href="#SimHei-22343"/>
      <use x="600" xlink:href="#SimHei-30446"/>
      <use x="700" xlink:href="#SimHei-26631"/>
      <use x="800" xlink:href="#SimHei-20989"/>
      <use x="900" xlink:href="#SimHei-25968"/>
      <use x="1000" xlink:href="#SimHei-20540"/>
     </g>
    </g>
    <g id="line2d_19">
     <path d="M 256.445 35.121875 
L 276.445 35.121875 
" style="fill:none;stroke:#ff7f0e;stroke-linecap:square;stroke-width:1.5;"/>
    </g>
    <g id="line2d_20"/>
    <g id="text_18">
     <!-- 种群最优个体目标函数值 -->
     <g transform="translate(284.445 38.621875)scale(0.1 -0.1)">
      <defs>
       <path d="M 7.421875 4.296875 
Q 10.546875 4.6875 17.1875 5.46875 
L 17.1875 38.28125 
Q 12.109375 38.28125 6.640625 37.890625 
L 6.640625 44.53125 
Q 12.109375 44.140625 17.578125 44.140625 
L 78.515625 44.140625 
Q 85.546875 44.140625 92.1875 44.53125 
L 92.1875 37.890625 
Q 85.546875 38.28125 78.515625 38.28125 
L 47.65625 38.28125 
L 47.65625 10.546875 
L 53.125 12.109375 
Q 53.125 8.59375 53.515625 6.25 
Q 50.390625 5.46875 47.65625 5.078125 
Q 47.65625 -1.953125 48.046875 -8.59375 
L 40.625 -8.59375 
Q 41.015625 -1.953125 41.015625 3.90625 
Q 36.71875 3.125 28.3125 1.359375 
Q 19.921875 -0.390625 10.15625 -2.734375 
Q 8.984375 1.5625 7.421875 4.296875 
z
M 79.6875 76.953125 
Q 79.296875 71.875 79.296875 67.578125 
L 79.296875 60.546875 
Q 79.296875 56.25 79.6875 50.78125 
L 19.921875 50.78125 
Q 20.3125 56.25 20.3125 60.546875 
L 20.3125 67.578125 
Q 20.3125 71.875 19.921875 76.953125 
L 79.6875 76.953125 
z
M 51.5625 32.03125 
Q 58.59375 31.640625 64.453125 31.640625 
L 83.984375 31.640625 
Q 79.6875 15.234375 73.828125 6.25 
Q 83.59375 0 92.578125 -1.5625 
Q 89.0625 -4.296875 88.28125 -7.8125 
Q 78.515625 -4.6875 69.921875 2.34375 
Q 64.84375 -3.125 56.25 -8.984375 
Q 54.6875 -6.640625 50.78125 -4.296875 
Q 58.984375 -1.5625 64.84375 5.46875 
Q 58.203125 12.109375 54.6875 26.171875 
L 51.5625 26.171875 
z
M 71.875 66.40625 
L 71.875 71.875 
L 27.34375 71.875 
L 27.34375 66.40625 
z
M 71.875 55.859375 
L 71.875 60.9375 
L 27.34375 60.9375 
L 27.34375 55.859375 
z
M 60.9375 26.171875 
Q 62.5 16.796875 68.75 9.765625 
Q 73.4375 16.40625 75.78125 26.171875 
L 60.9375 26.171875 
z
M 41.015625 19.53125 
L 41.015625 26.171875 
L 23.828125 26.171875 
L 23.828125 19.53125 
z
M 41.015625 8.984375 
L 41.015625 14.453125 
L 23.828125 14.453125 
L 23.828125 6.640625 
z
M 41.015625 31.640625 
L 41.015625 38.28125 
L 23.828125 38.28125 
L 23.828125 31.640625 
z
" id="SimHei-26368"/>
       <path d="M 72.65625 5.46875 
Q 72.265625 1.5625 75.390625 0.78125 
Q 78.515625 0 81.25 0.1875 
Q 83.984375 0.390625 85.34375 1.953125 
Q 86.71875 3.515625 88.28125 12.5 
Q 91.015625 9.765625 96.875 8.203125 
Q 94.53125 -0.390625 92.375 -3.125 
Q 90.234375 -5.859375 85.546875 -6.25 
L 73.4375 -6.25 
Q 65.234375 -6.25 65.234375 3.125 
L 65.234375 47.65625 
L 60.15625 47.65625 
Q 58.203125 9.375 37.109375 -8.59375 
Q 34.375 -5.078125 29.296875 -3.515625 
Q 49.609375 10.546875 52.34375 47.65625 
L 45.3125 47.65625 
Q 36.71875 47.65625 30.859375 47.265625 
L 30.859375 54.296875 
Q 36.71875 53.90625 45.3125 53.90625 
L 52.734375 53.90625 
Q 52.734375 73.4375 52.34375 80.46875 
Q 55.078125 79.6875 61.328125 79.296875 
Q 60.15625 73.4375 60.15625 53.90625 
L 81.25 53.90625 
Q 85.546875 53.90625 92.578125 54.296875 
L 92.578125 47.265625 
Q 85.9375 47.65625 81.640625 47.65625 
L 72.65625 47.65625 
L 72.65625 5.46875 
z
M 3.125 37.109375 
Q 8.203125 42.1875 15.625 56.4375 
Q 23.046875 70.703125 25 81.25 
Q 28.90625 78.90625 34.765625 76.953125 
Q 31.25 73.4375 26.5625 59.765625 
L 26.5625 9.375 
Q 26.5625 -2.34375 26.953125 -8.203125 
L 18.75 -8.203125 
Q 19.140625 -2.734375 19.140625 8.984375 
L 19.140625 46.484375 
Q 14.0625 37.890625 8.59375 30.859375 
Q 6.640625 34.375 3.125 37.109375 
z
M 75.78125 78.515625 
Q 78.125 75 80.46875 71.671875 
Q 82.8125 68.359375 85.15625 65.625 
Q 82.03125 63.671875 78.515625 60.546875 
Q 76.171875 65.234375 69.53125 73.828125 
Q 72.265625 75.78125 75.78125 78.515625 
z
" id="SimHei-20248"/>
      </defs>
      <use xlink:href="#SimHei-31181"/>
      <use x="100" xlink:href="#SimHei-32676"/>
      <use x="200" xlink:href="#SimHei-26368"/>
      <use x="300" xlink:href="#SimHei-20248"/>
      <use x="400" xlink:href="#SimHei-20010"/>
      <use x="500" xlink:href="#SimHei-20307"/>
      <use x="600" xlink:href="#SimHei-30446"/>
      <use x="700" xlink:href="#SimHei-26631"/>
      <use x="800" xlink:href="#SimHei-20989"/>
      <use x="900" xlink:href="#SimHei-25968"/>
      <use x="1000" xlink:href="#SimHei-20540"/>
     </g>
    </g>
   </g>
  </g>
 </g>
 <defs>
  <clipPath id="p6ad518ade6">
   <rect height="266.112" width="357.12" x="46.325" y="7.2"/>
  </clipPath>
 </defs>
</svg>
